<svg class="main-svg" xmlns="http://www.w3.org/2000/svg" xmlns:xlink="http://www.w3.org/1999/xlink" width="1000" height="1000" style="" viewBox="0 0 1000 1000"><rect x="0" y="0" width="1000" height="1000" style="fill: rgb(255, 255, 255); fill-opacity: 1;"/><defs id="defs-1cb145"><g class="clips"><clipPath id="clip1cb145xyplot" class="plotclip"><rect width="855" height="805"/></clipPath><clipPath class="axesclip" id="clip1cb145x"><rect x="50" y="0" width="855" height="1000"/></clipPath><clipPath class="axesclip" id="clip1cb145y"><rect x="0" y="50" width="1000" height="805"/></clipPath><clipPath class="axesclip" id="clip1cb145xy"><rect x="50" y="50" width="855" height="805"/></clipPath></g><g class="gradients"/></defs><g class="bglayer"/><g class="layer-below"><g class="imagelayer"/><g class="shapelayer"/></g><g class="cartesianlayer"><g class="subplot xy"><g class="layer-subplot"><g class="shapelayer"/><g class="imagelayer"/></g><g class="gridlayer"><g class="x"/><g class="y"/></g><g class="zerolinelayer"/><path class="xlines-below"/><path class="ylines-below"/><g class="overlines-below"/><g class="xaxislayer-below"/><g class="yaxislayer-below"/><g class="overaxes-below"/><g class="plot" transform="translate(50,50)" clip-path="url('#clip1cb145xyplot')"><g class="boxlayer mlayer"><g class="trace boxes" style="opacity: 1;"><path class="box" d="M49.74,239.94H90.02M49.74,257.14H90.02V234.44H49.74ZM69.88,257.14V287.9M69.88,234.44V208.54M59.81,287.9H79.95M59.81,208.54H79.95" style="vector-effect: non-scaling-stroke; stroke-width: 1.88976px; stroke: rgb(51, 51, 51); stroke-opacity: 1; fill: rgb(248, 118, 109); fill-opacity: 1;"/><path class="box" d="M214.16,93.99H254.44M214.16,114.6H254.44V67.31H214.16ZM234.3,114.6V121.66M234.3,67.31V36.59M224.23,121.66H244.37M224.23,36.59H244.37" style="vector-effect: non-scaling-stroke; stroke-width: 1.88976px; stroke: rgb(51, 51, 51); stroke-opacity: 1; fill: rgb(248, 118, 109); fill-opacity: 1;"/><path class="box" d="M378.58,405.15H418.87M378.58,456.98H418.87V362.29H378.58ZM398.73,456.98V477.63M398.73,362.29V348.98M388.66,477.63H408.8M388.66,348.98H408.8" style="vector-effect: non-scaling-stroke; stroke-width: 1.88976px; stroke: rgb(51, 51, 51); stroke-opacity: 1; fill: rgb(248, 118, 109); fill-opacity: 1;"/><path class="box" d="M543.01,598.76H583.29M543.01,704.42H583.29V582.15H543.01ZM563.15,704.42V768.36M563.15,582.15V529.79M553.08,768.36H573.22M553.08,529.79H573.22" style="vector-effect: non-scaling-stroke; stroke-width: 1.88976px; stroke: rgb(51, 51, 51); stroke-opacity: 1; fill: rgb(248, 118, 109); fill-opacity: 1;"/><path class="box" d="M707.43,232.23H747.71M707.43,252.68H747.71V208.35H707.43ZM727.57,252.68V283.8M727.57,208.35V164.15M717.5,283.8H737.64M717.5,164.15H737.64" style="vector-effect: non-scaling-stroke; stroke-width: 1.88976px; stroke: rgb(51, 51, 51); stroke-opacity: 1; fill: rgb(248, 118, 109); fill-opacity: 1;"/><g class="points"/><g class="points"/><g class="points"/><g class="points"/><g class="points"/></g><g class="trace boxes" style="opacity: 1;"><path class="box" d="M107.29,226.55H147.57M107.29,300.01H147.57V220.32H107.29ZM127.43,300.01V324.49M127.43,220.32V218.24M117.36,324.49H137.5M117.36,218.24H137.5" style="vector-effect: non-scaling-stroke; stroke-width: 1.88976px; stroke: rgb(51, 51, 51); stroke-opacity: 1; fill: rgb(0, 191, 196); fill-opacity: 1;"/><path class="box" d="M271.71,85.5H311.99M271.71,94.67H311.99V82.63H271.71ZM291.85,94.67V97.73M291.85,82.63V81.68M281.78,97.73H301.92M281.78,81.68H301.92" style="vector-effect: non-scaling-stroke; stroke-width: 1.88976px; stroke: rgb(51, 51, 51); stroke-opacity: 1; fill: rgb(0, 191, 196); fill-opacity: 1;"/><path class="box" d="M436.13,364.11H476.42M436.13,393.92H476.42V345.97H436.13ZM456.27,393.92V403.85M456.27,345.97V339.92M446.2,403.85H466.34M446.2,339.92H466.34" style="vector-effect: non-scaling-stroke; stroke-width: 1.88976px; stroke: rgb(51, 51, 51); stroke-opacity: 1; fill: rgb(0, 191, 196); fill-opacity: 1;"/><path class="box" d="M600.56,624.56H640.84M600.56,633.82H640.84V552.4H600.56ZM620.7,633.82V636.91M620.7,552.4V528.35M610.63,636.91H630.77M610.63,528.35H630.77" style="vector-effect: non-scaling-stroke; stroke-width: 1.88976px; stroke: rgb(51, 51, 51); stroke-opacity: 1; fill: rgb(0, 191, 196); fill-opacity: 1;"/><path class="box" d="M764.98,211.64H805.26M764.98,243.73H805.26V199.91H764.98ZM785.12,243.73V254.43M785.12,199.91V196.01M775.05,254.43H795.19M775.05,196.01H795.19" style="vector-effect: non-scaling-stroke; stroke-width: 1.88976px; stroke: rgb(51, 51, 51); stroke-opacity: 1; fill: rgb(0, 191, 196); fill-opacity: 1;"/><g class="points"/><g class="points"/><g class="points"/><g class="points"/><g class="points"/></g></g><g class="scatterlayer mlayer"><g class="trace scatter traceb6a83d" style="stroke-miterlimit: 2; opacity: 1;"><g class="fills"/><g class="errorbars"/><g class="lines"/><g class="points"><path class="point" transform="translate(154.54,237.58)" d="M0.76,0A0.76,0.76 0 1,1 0,-0.76A0.76,0.76 0 0,1 0.76,0Z" style="opacity: 0.9; stroke-width: 1.88976px; fill: rgb(248, 118, 109); fill-opacity: 1; stroke: rgb(0, 0, 0); stroke-opacity: 1;"/><path class="point" transform="translate(107.85,287.91)" d="M0.76,0A0.76,0.76 0 1,1 0,-0.76A0.76,0.76 0 0,1 0.76,0Z" style="opacity: 0.9; stroke-width: 1.88976px; fill: rgb(248, 118, 109); fill-opacity: 1; stroke: rgb(0, 0, 0); stroke-opacity: 1;"/><path class="point" transform="translate(54.34,208.59)" d="M0.76,0A0.76,0.76 0 1,1 0,-0.76A0.76,0.76 0 0,1 0.76,0Z" style="opacity: 0.9; stroke-width: 1.88976px; fill: rgb(248, 118, 109); fill-opacity: 1; stroke: rgb(0, 0, 0); stroke-opacity: 1;"/><path class="point" transform="translate(60.12,236.36)" d="M0.76,0A0.76,0.76 0 1,1 0,-0.76A0.76,0.76 0 0,1 0.76,0Z" style="opacity: 0.9; stroke-width: 1.88976px; fill: rgb(248, 118, 109); fill-opacity: 1; stroke: rgb(0, 0, 0); stroke-opacity: 1;"/><path class="point" transform="translate(43.8,259.64)" d="M0.76,0A0.76,0.76 0 1,1 0,-0.76A0.76,0.76 0 0,1 0.76,0Z" style="opacity: 0.9; stroke-width: 1.88976px; fill: rgb(248, 118, 109); fill-opacity: 1; stroke: rgb(0, 0, 0); stroke-opacity: 1;"/><path class="point" transform="translate(133.59,242.37)" d="M0.76,0A0.76,0.76 0 1,1 0,-0.76A0.76,0.76 0 0,1 0.76,0Z" style="opacity: 0.9; stroke-width: 1.88976px; fill: rgb(248, 118, 109); fill-opacity: 1; stroke: rgb(0, 0, 0); stroke-opacity: 1;"/><path class="point" transform="translate(148.52,254.73)" d="M0.76,0A0.76,0.76 0 1,1 0,-0.76A0.76,0.76 0 0,1 0.76,0Z" style="opacity: 0.9; stroke-width: 1.88976px; fill: rgb(248, 118, 109); fill-opacity: 1; stroke: rgb(0, 0, 0); stroke-opacity: 1;"/><path class="point" transform="translate(155.81,232.54)" d="M0.76,0A0.76,0.76 0 1,1 0,-0.76A0.76,0.76 0 0,1 0.76,0Z" style="opacity: 0.9; stroke-width: 1.88976px; fill: rgb(248, 118, 109); fill-opacity: 1; stroke: rgb(0, 0, 0); stroke-opacity: 1;"/><path class="point" transform="translate(233.58,66.87)" d="M0.76,0A0.76,0.76 0 1,1 0,-0.76A0.76,0.76 0 0,1 0.76,0Z" style="opacity: 0.9; stroke-width: 1.88976px; fill: rgb(248, 118, 109); fill-opacity: 1; stroke: rgb(0, 0, 0); stroke-opacity: 1;"/><path class="point" transform="translate(277.27,117.19)" d="M0.76,0A0.76,0.76 0 1,1 0,-0.76A0.76,0.76 0 0,1 0.76,0Z" style="opacity: 0.9; stroke-width: 1.88976px; fill: rgb(248, 118, 109); fill-opacity: 1; stroke: rgb(0, 0, 0); stroke-opacity: 1;"/><path class="point" transform="translate(214.5,67.75)" d="M0.76,0A0.76,0.76 0 1,1 0,-0.76A0.76,0.76 0 0,1 0.76,0Z" style="opacity: 0.9; stroke-width: 1.88976px; fill: rgb(248, 118, 109); fill-opacity: 1; stroke: rgb(0, 0, 0); stroke-opacity: 1;"/><path class="point" transform="translate(302.03,121.62)" d="M0.76,0A0.76,0.76 0 1,1 0,-0.76A0.76,0.76 0 0,1 0.76,0Z" style="opacity: 0.9; stroke-width: 1.88976px; fill: rgb(248, 118, 109); fill-opacity: 1; stroke: rgb(0, 0, 0); stroke-opacity: 1;"/><path class="point" transform="translate(232.28,91.76)" d="M0.76,0A0.76,0.76 0 1,1 0,-0.76A0.76,0.76 0 0,1 0.76,0Z" style="opacity: 0.9; stroke-width: 1.88976px; fill: rgb(248, 118, 109); fill-opacity: 1; stroke: rgb(0, 0, 0); stroke-opacity: 1;"/><path class="point" transform="translate(240,96.13)" d="M0.76,0A0.76,0.76 0 1,1 0,-0.76A0.76,0.76 0 0,1 0.76,0Z" style="opacity: 0.9; stroke-width: 1.88976px; fill: rgb(248, 118, 109); fill-opacity: 1; stroke: rgb(0, 0, 0); stroke-opacity: 1;"/><path class="point" transform="translate(259.51,112.05)" d="M0.76,0A0.76,0.76 0 1,1 0,-0.76A0.76,0.76 0 0,1 0.76,0Z" style="opacity: 0.9; stroke-width: 1.88976px; fill: rgb(248, 118, 109); fill-opacity: 1; stroke: rgb(0, 0, 0); stroke-opacity: 1;"/><path class="point" transform="translate(301.17,36.62)" d="M0.76,0A0.76,0.76 0 1,1 0,-0.76A0.76,0.76 0 0,1 0.76,0Z" style="opacity: 0.9; stroke-width: 1.88976px; fill: rgb(248, 118, 109); fill-opacity: 1; stroke: rgb(0, 0, 0); stroke-opacity: 1;"/><path class="point" transform="translate(398.42,375.17)" d="M0.76,0A0.76,0.76 0 1,1 0,-0.76A0.76,0.76 0 0,1 0.76,0Z" style="opacity: 0.9; stroke-width: 1.88976px; fill: rgb(248, 118, 109); fill-opacity: 1; stroke: rgb(0, 0, 0); stroke-opacity: 1;"/><path class="point" transform="translate(439.15,349.02)" d="M0.76,0A0.76,0.76 0 1,1 0,-0.76A0.76,0.76 0 0,1 0.76,0Z" style="opacity: 0.9; stroke-width: 1.88976px; fill: rgb(248, 118, 109); fill-opacity: 1; stroke: rgb(0, 0, 0); stroke-opacity: 1;"/><path class="point" transform="translate(378.94,477.69)" d="M0.76,0A0.76,0.76 0 1,1 0,-0.76A0.76,0.76 0 0,1 0.76,0Z" style="opacity: 0.9; stroke-width: 1.88976px; fill: rgb(248, 118, 109); fill-opacity: 1; stroke: rgb(0, 0, 0); stroke-opacity: 1;"/><path class="point" transform="translate(450.67,435.1)" d="M0.76,0A0.76,0.76 0 1,1 0,-0.76A0.76,0.76 0 0,1 0.76,0Z" style="opacity: 0.9; stroke-width: 1.88976px; fill: rgb(248, 118, 109); fill-opacity: 1; stroke: rgb(0, 0, 0); stroke-opacity: 1;"/><path class="point" transform="translate(489.89,460.82)" d="M0.76,0A0.76,0.76 0 1,1 0,-0.76A0.76,0.76 0 0,1 0.76,0Z" style="opacity: 0.9; stroke-width: 1.88976px; fill: rgb(248, 118, 109); fill-opacity: 1; stroke: rgb(0, 0, 0); stroke-opacity: 1;"/><path class="point" transform="translate(442.91,370.57)" d="M0.76,0A0.76,0.76 0 1,1 0,-0.76A0.76,0.76 0 0,1 0.76,0Z" style="opacity: 0.9; stroke-width: 1.88976px; fill: rgb(248, 118, 109); fill-opacity: 1; stroke: rgb(0, 0, 0); stroke-opacity: 1;"/><path class="point" transform="translate(409.3,453.09)" d="M0.76,0A0.76,0.76 0 1,1 0,-0.76A0.76,0.76 0 0,1 0.76,0Z" style="opacity: 0.9; stroke-width: 1.88976px; fill: rgb(248, 118, 109); fill-opacity: 1; stroke: rgb(0, 0, 0); stroke-opacity: 1;"/><path class="point" transform="translate(364.58,353.95)" d="M0.76,0A0.76,0.76 0 1,1 0,-0.76A0.76,0.76 0 0,1 0.76,0Z" style="opacity: 0.9; stroke-width: 1.88976px; fill: rgb(248, 118, 109); fill-opacity: 1; stroke: rgb(0, 0, 0); stroke-opacity: 1;"/><path class="point" transform="translate(614.83,600.82)" d="M0.76,0A0.76,0.76 0 1,1 0,-0.76A0.76,0.76 0 0,1 0.76,0Z" style="opacity: 0.9; stroke-width: 1.88976px; fill: rgb(248, 118, 109); fill-opacity: 1; stroke: rgb(0, 0, 0); stroke-opacity: 1;"/><path class="point" transform="translate(618.39,570.85)" d="M0.76,0A0.76,0.76 0 1,1 0,-0.76A0.76,0.76 0 0,1 0.76,0Z" style="opacity: 0.9; stroke-width: 1.88976px; fill: rgb(248, 118, 109); fill-opacity: 1; stroke: rgb(0, 0, 0); stroke-opacity: 1;"/><path class="point" transform="translate(529.54,768.41)" d="M0.76,0A0.76,0.76 0 1,1 0,-0.76A0.76,0.76 0 0,1 0.76,0Z" style="opacity: 0.9; stroke-width: 1.88976px; fill: rgb(248, 118, 109); fill-opacity: 1; stroke: rgb(0, 0, 0); stroke-opacity: 1;"/><path class="point" transform="translate(552.25,593.36)" d="M0.76,0A0.76,0.76 0 1,1 0,-0.76A0.76,0.76 0 0,1 0.76,0Z" style="opacity: 0.9; stroke-width: 1.88976px; fill: rgb(248, 118, 109); fill-opacity: 1; stroke: rgb(0, 0, 0); stroke-opacity: 1;"/><path class="point" transform="translate(635.82,596.72)" d="M0.76,0A0.76,0.76 0 1,1 0,-0.76A0.76,0.76 0 0,1 0.76,0Z" style="opacity: 0.9; stroke-width: 1.88976px; fill: rgb(248, 118, 109); fill-opacity: 1; stroke: rgb(0, 0, 0); stroke-opacity: 1;"/><path class="point" transform="translate(656.27,720.94)" d="M0.76,0A0.76,0.76 0 1,1 0,-0.76A0.76,0.76 0 0,1 0.76,0Z" style="opacity: 0.9; stroke-width: 1.88976px; fill: rgb(248, 118, 109); fill-opacity: 1; stroke: rgb(0, 0, 0); stroke-opacity: 1;"/><path class="point" transform="translate(627.68,529.86)" d="M0.76,0A0.76,0.76 0 1,1 0,-0.76A0.76,0.76 0 0,1 0.76,0Z" style="opacity: 0.9; stroke-width: 1.88976px; fill: rgb(248, 118, 109); fill-opacity: 1; stroke: rgb(0, 0, 0); stroke-opacity: 1;"/><path class="point" transform="translate(584.92,687.85)" d="M0.76,0A0.76,0.76 0 1,1 0,-0.76A0.76,0.76 0 0,1 0.76,0Z" style="opacity: 0.9; stroke-width: 1.88976px; fill: rgb(248, 118, 109); fill-opacity: 1; stroke: rgb(0, 0, 0); stroke-opacity: 1;"/><path class="point" transform="translate(764.83,254.95)" d="M0.76,0A0.76,0.76 0 1,1 0,-0.76A0.76,0.76 0 0,1 0.76,0Z" style="opacity: 0.9; stroke-width: 1.88976px; fill: rgb(248, 118, 109); fill-opacity: 1; stroke: rgb(0, 0, 0); stroke-opacity: 1;"/><path class="point" transform="translate(718.54,164.15)" d="M0.76,0A0.76,0.76 0 1,1 0,-0.76A0.76,0.76 0 0,1 0.76,0Z" style="opacity: 0.9; stroke-width: 1.88976px; fill: rgb(248, 118, 109); fill-opacity: 1; stroke: rgb(0, 0, 0); stroke-opacity: 1;"/><path class="point" transform="translate(758.98,199.72)" d="M0.76,0A0.76,0.76 0 1,1 0,-0.76A0.76,0.76 0 0,1 0.76,0Z" style="opacity: 0.9; stroke-width: 1.88976px; fill: rgb(248, 118, 109); fill-opacity: 1; stroke: rgb(0, 0, 0); stroke-opacity: 1;"/><path class="point" transform="translate(747.64,250.47)" d="M0.76,0A0.76,0.76 0 1,1 0,-0.76A0.76,0.76 0 0,1 0.76,0Z" style="opacity: 0.9; stroke-width: 1.88976px; fill: rgb(248, 118, 109); fill-opacity: 1; stroke: rgb(0, 0, 0); stroke-opacity: 1;"/><path class="point" transform="translate(729.94,241.2)" d="M0.76,0A0.76,0.76 0 1,1 0,-0.76A0.76,0.76 0 0,1 0.76,0Z" style="opacity: 0.9; stroke-width: 1.88976px; fill: rgb(248, 118, 109); fill-opacity: 1; stroke: rgb(0, 0, 0); stroke-opacity: 1;"/><path class="point" transform="translate(756.39,223.34)" d="M0.76,0A0.76,0.76 0 1,1 0,-0.76A0.76,0.76 0 0,1 0.76,0Z" style="opacity: 0.9; stroke-width: 1.88976px; fill: rgb(248, 118, 109); fill-opacity: 1; stroke: rgb(0, 0, 0); stroke-opacity: 1;"/><path class="point" transform="translate(749.55,216.99)" d="M0.76,0A0.76,0.76 0 1,1 0,-0.76A0.76,0.76 0 0,1 0.76,0Z" style="opacity: 0.9; stroke-width: 1.88976px; fill: rgb(248, 118, 109); fill-opacity: 1; stroke: rgb(0, 0, 0); stroke-opacity: 1;"/><path class="point" transform="translate(697.39,283.8)" d="M0.76,0A0.76,0.76 0 1,1 0,-0.76A0.76,0.76 0 0,1 0.76,0Z" style="opacity: 0.9; stroke-width: 1.88976px; fill: rgb(248, 118, 109); fill-opacity: 1; stroke: rgb(0, 0, 0); stroke-opacity: 1;"/></g><g class="text"/></g><g class="trace scatter trace284c66" style="stroke-miterlimit: 2; opacity: 1;"><g class="fills"/><g class="errorbars"/><g class="lines"/><g class="points"><path class="point" transform="translate(91.49,324.5)" d="M0.76,0A0.76,0.76 0 1,1 0,-0.76A0.76,0.76 0 0,1 0.76,0Z" style="opacity: 0.9; stroke-width: 1.88976px; fill: rgb(0, 191, 196); fill-opacity: 1; stroke: rgb(0, 0, 0); stroke-opacity: 1;"/><path class="point" transform="translate(85.14,226.52)" d="M0.76,0A0.76,0.76 0 1,1 0,-0.76A0.76,0.76 0 0,1 0.76,0Z" style="opacity: 0.9; stroke-width: 1.88976px; fill: rgb(0, 191, 196); fill-opacity: 1; stroke: rgb(0, 0, 0); stroke-opacity: 1;"/><path class="point" transform="translate(133.81,218.22)" d="M0.76,0A0.76,0.76 0 1,1 0,-0.76A0.76,0.76 0 0,1 0.76,0Z" style="opacity: 0.9; stroke-width: 1.88976px; fill: rgb(0, 191, 196); fill-opacity: 1; stroke: rgb(0, 0, 0); stroke-opacity: 1;"/><path class="point" transform="translate(211.66,97.67)" d="M0.76,0A0.76,0.76 0 1,1 0,-0.76A0.76,0.76 0 0,1 0.76,0Z" style="opacity: 0.9; stroke-width: 1.88976px; fill: rgb(0, 191, 196); fill-opacity: 1; stroke: rgb(0, 0, 0); stroke-opacity: 1;"/><path class="point" transform="translate(219.29,81.65)" d="M0.76,0A0.76,0.76 0 1,1 0,-0.76A0.76,0.76 0 0,1 0.76,0Z" style="opacity: 0.9; stroke-width: 1.88976px; fill: rgb(0, 191, 196); fill-opacity: 1; stroke: rgb(0, 0, 0); stroke-opacity: 1;"/><path class="point" transform="translate(295.68,85.45)" d="M0.76,0A0.76,0.76 0 1,1 0,-0.76A0.76,0.76 0 0,1 0.76,0Z" style="opacity: 0.9; stroke-width: 1.88976px; fill: rgb(0, 191, 196); fill-opacity: 1; stroke: rgb(0, 0, 0); stroke-opacity: 1;"/><path class="point" transform="translate(383.06,364.13)" d="M0.76,0A0.76,0.76 0 1,1 0,-0.76A0.76,0.76 0 0,1 0.76,0Z" style="opacity: 0.9; stroke-width: 1.88976px; fill: rgb(0, 191, 196); fill-opacity: 1; stroke: rgb(0, 0, 0); stroke-opacity: 1;"/><path class="point" transform="translate(384.73,339.91)" d="M0.76,0A0.76,0.76 0 1,1 0,-0.76A0.76,0.76 0 0,1 0.76,0Z" style="opacity: 0.9; stroke-width: 1.88976px; fill: rgb(0, 191, 196); fill-opacity: 1; stroke: rgb(0, 0, 0); stroke-opacity: 1;"/><path class="point" transform="translate(453.86,403.88)" d="M0.76,0A0.76,0.76 0 1,1 0,-0.76A0.76,0.76 0 0,1 0.76,0Z" style="opacity: 0.9; stroke-width: 1.88976px; fill: rgb(0, 191, 196); fill-opacity: 1; stroke: rgb(0, 0, 0); stroke-opacity: 1;"/><path class="point" transform="translate(586.8,636.97)" d="M0.76,0A0.76,0.76 0 1,1 0,-0.76A0.76,0.76 0 0,1 0.76,0Z" style="opacity: 0.9; stroke-width: 1.88976px; fill: rgb(0, 191, 196); fill-opacity: 1; stroke: rgb(0, 0, 0); stroke-opacity: 1;"/><path class="point" transform="translate(646.3,528.33)" d="M0.76,0A0.76,0.76 0 1,1 0,-0.76A0.76,0.76 0 0,1 0.76,0Z" style="opacity: 0.9; stroke-width: 1.88976px; fill: rgb(0, 191, 196); fill-opacity: 1; stroke: rgb(0, 0, 0); stroke-opacity: 1;"/><path class="point" transform="translate(623.02,624.57)" d="M0.76,0A0.76,0.76 0 1,1 0,-0.76A0.76,0.76 0 0,1 0.76,0Z" style="opacity: 0.9; stroke-width: 1.88976px; fill: rgb(0, 191, 196); fill-opacity: 1; stroke: rgb(0, 0, 0); stroke-opacity: 1;"/><path class="point" transform="translate(810.72,254.42)" d="M0.76,0A0.76,0.76 0 1,1 0,-0.76A0.76,0.76 0 0,1 0.76,0Z" style="opacity: 0.9; stroke-width: 1.88976px; fill: rgb(0, 191, 196); fill-opacity: 1; stroke: rgb(0, 0, 0); stroke-opacity: 1;"/><path class="point" transform="translate(757.09,211.65)" d="M0.76,0A0.76,0.76 0 1,1 0,-0.76A0.76,0.76 0 0,1 0.76,0Z" style="opacity: 0.9; stroke-width: 1.88976px; fill: rgb(0, 191, 196); fill-opacity: 1; stroke: rgb(0, 0, 0); stroke-opacity: 1;"/><path class="point" transform="translate(700.81,196.04)" d="M0.76,0A0.76,0.76 0 1,1 0,-0.76A0.76,0.76 0 0,1 0.76,0Z" style="opacity: 0.9; stroke-width: 1.88976px; fill: rgb(0, 191, 196); fill-opacity: 1; stroke: rgb(0, 0, 0); stroke-opacity: 1;"/></g><g class="text"/></g><g class="trace scatter traced4dc27" style="stroke-miterlimit: 2; opacity: 1;"><g class="fills"/><g class="errorbars"/><g class="lines"/><g class="points"/><g class="text"><g class="textpoint" transform="translate(0,-5.865826771653557)"><text x="98.65" y="36.59" text-anchor="middle" style="font-family: 'Open Sans', verdana, arial, sans-serif; font-size: 14.6646px; fill: rgb(0, 0, 0); fill-opacity: 1; white-space: pre;"><tspan class="line" dy="0em" x="98.65" y="36.59">T-test</tspan><tspan class="line" dy="1.3em" x="98.65" y="36.59">p = 0.77</tspan></text></g><g class="textpoint" transform="translate(0,-5.865826771653557)"><text x="263.08" y="36.59" text-anchor="middle" style="font-family: 'Open Sans', verdana, arial, sans-serif; font-size: 14.6646px; fill: rgb(0, 0, 0); fill-opacity: 1; white-space: pre;"><tspan class="line" dy="0em" x="263.08" y="36.59">T-test</tspan><tspan class="line" dy="1.3em" x="263.08" y="36.59">p = 0.97</tspan></text></g><g class="textpoint" transform="translate(0,-5.865826771653557)"><text x="427.5" y="36.59" text-anchor="middle" style="font-family: 'Open Sans', verdana, arial, sans-serif; font-size: 14.6646px; fill: rgb(0, 0, 0); fill-opacity: 1; white-space: pre;"><tspan class="line" dy="0em" x="427.5" y="36.59">T-test</tspan><tspan class="line" dy="1.3em" x="427.5" y="36.59">p = 0.18</tspan></text></g><g class="textpoint" transform="translate(0,-5.865826771653557)"><text x="591.92" y="36.59" text-anchor="middle" style="font-family: 'Open Sans', verdana, arial, sans-serif; font-size: 14.6646px; fill: rgb(0, 0, 0); fill-opacity: 1; white-space: pre;"><tspan class="line" dy="0em" x="591.92" y="36.59">T-test</tspan><tspan class="line" dy="1.3em" x="591.92" y="36.59">p = 0.45</tspan></text></g><g class="textpoint" transform="translate(0,-5.865826771653557)"><text x="756.35" y="36.59" text-anchor="middle" style="font-family: 'Open Sans', verdana, arial, sans-serif; font-size: 14.6646px; fill: rgb(0, 0, 0); fill-opacity: 1; white-space: pre;"><tspan class="line" dy="0em" x="756.35" y="36.59">T-test</tspan><tspan class="line" dy="1.3em" x="756.35" y="36.59">p = 0.71</tspan></text></g></g></g></g></g><g class="overplot"/><path class="xlines-above crisp" d="" style="fill: none; stroke-width: 1px; stroke: rgb(0, 0, 0); stroke-opacity: 0;"/><path class="ylines-above crisp" d="" style="fill: none; stroke-width: 1px; stroke: rgb(0, 0, 0); stroke-opacity: 0;"/><g class="overlines-above"/><g class="xaxislayer-above"><path class="xtick ticks crisp" d="M0,856v3.65296803652968" transform="translate(148.65,0)" style="stroke: rgb(0, 0, 0); stroke-opacity: 1; stroke-width: 0.664176px;"/><path class="xtick ticks crisp" d="M0,856v3.65296803652968" transform="translate(313.08,0)" style="stroke: rgb(0, 0, 0); stroke-opacity: 1; stroke-width: 0.664176px;"/><path class="xtick ticks crisp" d="M0,856v3.65296803652968" transform="translate(477.5,0)" style="stroke: rgb(0, 0, 0); stroke-opacity: 1; stroke-width: 0.664176px;"/><path class="xtick ticks crisp" d="M0,856v3.65296803652968" transform="translate(641.92,0)" style="stroke: rgb(0, 0, 0); stroke-opacity: 1; stroke-width: 0.664176px;"/><path class="xtick ticks crisp" d="M0,856v3.65296803652968" transform="translate(806.35,0)" style="stroke: rgb(0, 0, 0); stroke-opacity: 1; stroke-width: 0.664176px;"/><g class="xtick"><text text-anchor="end" x="0" y="873.6803652968036" transform="translate(148.65,0) rotate(-45,0,867.8356164383562)" style="font-family: 'Open Sans', verdana, arial, sans-serif; font-size: 11.6895px; fill: rgb(0, 0, 0); fill-opacity: 1; white-space: pre;">ENSMUSG00000026510</text></g><g class="xtick"><text text-anchor="end" x="0" y="873.6803652968036" transform="translate(313.08,0) rotate(-45,0,867.8356164383562)" style="font-family: 'Open Sans', verdana, arial, sans-serif; font-size: 11.6895px; fill: rgb(0, 0, 0); fill-opacity: 1; white-space: pre;">ENSMUSG00000038375</text></g><g class="xtick"><text text-anchor="end" x="0" y="873.6803652968036" transform="translate(477.5,0) rotate(-45,0,867.8356164383562)" style="font-family: 'Open Sans', verdana, arial, sans-serif; font-size: 11.6895px; fill: rgb(0, 0, 0); fill-opacity: 1; white-space: pre;">ENSMUSG00000039725</text></g><g class="xtick"><text text-anchor="end" x="0" y="873.6803652968036" transform="translate(641.92,0) rotate(-45,0,867.8356164383562)" style="font-family: 'Open Sans', verdana, arial, sans-serif; font-size: 11.6895px; fill: rgb(0, 0, 0); fill-opacity: 1; white-space: pre;">ENSMUSG00000042854</text></g><g class="xtick"><text text-anchor="end" x="0" y="873.6803652968036" transform="translate(806.35,0) rotate(-45,0,867.8356164383562)" style="font-family: 'Open Sans', verdana, arial, sans-serif; font-size: 11.6895px; fill: rgb(0, 0, 0); fill-opacity: 1; white-space: pre;">ENSMUSG00000059552</text></g></g><g class="yaxislayer-above"><path class="ytick ticks crisp" d="M49,0h-3.65296803652968" transform="translate(0,767.55)" style="stroke: rgb(0, 0, 0); stroke-opacity: 1; stroke-width: 0.664176px;"/><path class="ytick ticks crisp" d="M49,0h-3.65296803652968" transform="translate(0,584.14)" style="stroke: rgb(0, 0, 0); stroke-opacity: 1; stroke-width: 0.664176px;"/><path class="ytick ticks crisp" d="M49,0h-3.65296803652968" transform="translate(0,400.72)" style="stroke: rgb(0, 0, 0); stroke-opacity: 1; stroke-width: 0.664176px;"/><path class="ytick ticks crisp" d="M49,0h-3.65296803652968" transform="translate(0,217.31)" style="stroke: rgb(0, 0, 0); stroke-opacity: 1; stroke-width: 0.664176px;"/><g class="ytick"><text text-anchor="middle" x="34.82648401826482" y="4.09132420091325" transform="translate(0,767.55) rotate(-90,34.82648401826482,-1.75342465753425)" style="font-family: 'Open Sans', verdana, arial, sans-serif; font-size: 11.6895px; fill: rgb(0, 0, 0); fill-opacity: 1; white-space: pre;">-2</text></g><g class="ytick"><text text-anchor="middle" x="34.82648401826482" y="4.09132420091325" transform="translate(0,584.14) rotate(-90,34.82648401826482,-1.75342465753425)" style="font-family: 'Open Sans', verdana, arial, sans-serif; font-size: 11.6895px; fill: rgb(0, 0, 0); fill-opacity: 1; white-space: pre;">0</text></g><g class="ytick"><text text-anchor="middle" x="34.82648401826482" y="4.09132420091325" transform="translate(0,400.72) rotate(-90,34.82648401826482,-1.75342465753425)" style="font-family: 'Open Sans', verdana, arial, sans-serif; font-size: 11.6895px; fill: rgb(0, 0, 0); fill-opacity: 1; white-space: pre;">2</text></g><g class="ytick"><text text-anchor="middle" x="34.82648401826482" y="4.09132420091325" transform="translate(0,217.31) rotate(-90,34.82648401826482,-1.75342465753425)" style="font-family: 'Open Sans', verdana, arial, sans-serif; font-size: 11.6895px; fill: rgb(0, 0, 0); fill-opacity: 1; white-space: pre;">4</text></g></g><g class="overaxes-above"/></g></g><g class="polarlayer"/><g class="ternarylayer"/><g class="geolayer"/><g class="funnelarealayer"/><g class="pielayer"/><g class="treemaplayer"/><g class="sunburstlayer"/><g class="glimages"/><defs id="topdefs-1cb145"><g class="clips"/><clipPath id="legend1cb145"><rect width="62.22047244094488" height="77.22047244094487" x="1.88976377952756" y="1.88976377952756"/></clipPath></defs><g class="layer-above"><g class="imagelayer"/><g class="shapelayer"><path data-index="0" fill-rule="evenodd" d="M50,855H905V50H50Z" style="opacity: 1; stroke: rgb(0, 0, 0); stroke-opacity: 1; fill: rgb(0, 0, 0); fill-opacity: 0; stroke-width: 1.32835px;"/></g></g><g class="infolayer"><g class="legend" pointer-events="all" transform="translate(922.1,50)"><rect class="bg" shape-rendering="crispEdges" width="64.11023622047244" height="79.11023622047244" x="0.94488188976378" y="0.94488188976378" style="stroke: rgb(0, 0, 0); stroke-opacity: 0; fill: rgb(255, 255, 255); fill-opacity: 1; stroke-width: 1.88976px;"/><g class="scrollbox" transform="" clip-path="url('#legend1cb145')"><text class="legendtitletext" text-anchor="start" x="3.88976377952756" y="20.885197569481868" style="font-family: 'Open Sans', verdana, arial, sans-serif; font-size: 14.6119px; fill: rgb(0, 0, 0); fill-opacity: 1; white-space: pre;">Group</text><g class="groups" transform=""><g class="traces" transform="translate(1.88976377952756,35.38519756948187)" style="opacity: 1;"><text class="legendtext" text-anchor="start" x="40" y="4.55890410958905" style="font-family: 'Open Sans', verdana, arial, sans-serif; font-size: 11.6895px; fill: rgb(0, 0, 0); fill-opacity: 1; white-space: pre;">PM</text><g class="layers" style="opacity: 1;"><g class="legendfill"/><g class="legendlines"/><g class="legendsymbols"><g class="legendpoints"><path class="legendbox" d="M6,6H-6V-6H6Z" transform="translate(20,0)" style="stroke-width: 1.88976px; fill: rgb(248, 118, 109); fill-opacity: 1; stroke: rgb(51, 51, 51); stroke-opacity: 1;"/></g></g></g><rect class="legendtoggle" x="0" y="-9.5" width="56.8984375" height="19" style="fill: rgb(0, 0, 0); fill-opacity: 0;"/></g></g><g class="groups" transform="translate(0,10)"><g class="traces" transform="translate(1.88976377952756,54.38519756948187)" style="opacity: 1;"><text class="legendtext" text-anchor="start" x="40" y="4.55890410958905" style="font-family: 'Open Sans', verdana, arial, sans-serif; font-size: 11.6895px; fill: rgb(0, 0, 0); fill-opacity: 1; white-space: pre;">FA</text><g class="layers" style="opacity: 1;"><g class="legendfill"/><g class="legendlines"/><g class="legendsymbols"><g class="legendpoints"><path class="legendbox" d="M6,6H-6V-6H6Z" transform="translate(20,0)" style="stroke-width: 1.88976px; fill: rgb(0, 191, 196); fill-opacity: 1; stroke: rgb(51, 51, 51); stroke-opacity: 1;"/></g></g></g><rect class="legendtoggle" x="0" y="-9.5" width="56.8984375" height="19" style="fill: rgb(0, 0, 0); fill-opacity: 0;"/></g></g></g><rect class="scrollbar" rx="20" ry="3" width="0" height="0" x="0" y="0" style="fill: rgb(128, 139, 164); fill-opacity: 1;"/></g><g class="g-gtitle"><text class="gtitle" x="477.5" y="25" text-anchor="middle" dy="0em" style="font-family: 'Open Sans', verdana, arial, sans-serif; font-size: 17.53px; fill: rgb(0, 0, 0); opacity: 1; font-weight: normal; white-space: pre;"><tspan style="font-weight:bold"> Expression on BoxPlot </tspan></text></g><g class="g-xtitle" transform="translate(0,81.30110231164394)"><text class="xtitle" x="477.5" y="908.835616438356" text-anchor="middle" style="font-family: 'Open Sans', verdana, arial, sans-serif; font-size: 14.61px; fill: rgb(0, 0, 0); opacity: 1; font-weight: normal; white-space: pre;"><tspan style="font-weight:bold"> Gene Symbol </tspan></text></g><g class="g-ytitle" transform="translate(3.7236328125,0)"><text class="ytitle" transform="rotate(-90,10.776255707762601,452.5)" x="10.776255707762601" y="452.5" text-anchor="middle" style="font-family: 'Open Sans', verdana, arial, sans-serif; font-size: 14.61px; fill: rgb(0, 0, 0); opacity: 1; font-weight: normal; white-space: pre;"><tspan style="font-weight:bold"> Expression [log2(FPKM + 1)] </tspan></text></g></g></svg>