<svg class="main-svg" xmlns="http://www.w3.org/2000/svg" xmlns:xlink="http://www.w3.org/1999/xlink" width="1000" height="1000" style="" viewBox="0 0 1000 1000"><rect x="0" y="0" width="1000" height="1000" style="fill: rgb(255, 255, 255); fill-opacity: 1;"/><defs id="defs-5a9756"><g class="clips"><clipPath id="clip5a9756xyplot" class="plotclip"><rect width="855" height="889"/></clipPath><clipPath class="axesclip" id="clip5a9756x"><rect x="50" y="0" width="855" height="1000"/></clipPath><clipPath class="axesclip" id="clip5a9756y"><rect x="0" y="50" width="1000" height="889"/></clipPath><clipPath class="axesclip" id="clip5a9756xy"><rect x="50" y="50" width="855" height="889"/></clipPath></g><g class="gradients"/></defs><g class="bglayer"/><g class="layer-below"><g class="imagelayer"/><g class="shapelayer"/></g><g class="cartesianlayer"><g class="subplot xy"><g class="layer-subplot"><g class="shapelayer"/><g class="imagelayer"/></g><g class="gridlayer"><g class="x"/><g class="y"/></g><g class="zerolinelayer"/><path class="xlines-below"/><path class="ylines-below"/><g class="overlines-below"/><g class="xaxislayer-below"/><g class="yaxislayer-below"/><g class="overaxes-below"/><g class="plot" transform="translate(50,50)" clip-path="url('#clip5a9756xyplot')"><g class="boxlayer mlayer"><g class="trace boxes" style="opacity: 1;"><path class="box" d="M49.74,848.59H90.02M49.74,848.59H90.02V848.59H49.74ZM69.88,848.59V848.59M69.88,848.59V848.59M59.81,848.59H79.95M59.81,848.59H79.95" style="vector-effect: non-scaling-stroke; stroke-width: 1.88976px; stroke: rgb(51, 51, 51); stroke-opacity: 1; fill: rgb(248, 118, 109); fill-opacity: 1;"/><path class="box" d="M214.16,796.51H254.44M214.16,814.18H254.44V774.79H214.16ZM234.3,814.18V818.77M234.3,774.79V771.76M224.23,818.77H244.37M224.23,771.76H244.37" style="vector-effect: non-scaling-stroke; stroke-width: 1.88976px; stroke: rgb(51, 51, 51); stroke-opacity: 1; fill: rgb(248, 118, 109); fill-opacity: 1;"/><path class="box" d="M378.58,778.41H418.87M378.58,788.98H418.87V755.19H378.58ZM398.73,788.98V798.77M398.73,755.19V737.36M388.66,798.77H408.8M388.66,737.36H408.8" style="vector-effect: non-scaling-stroke; stroke-width: 1.88976px; stroke: rgb(51, 51, 51); stroke-opacity: 1; fill: rgb(248, 118, 109); fill-opacity: 1;"/><path class="box" d="M543.01,790.66H583.29M543.01,812.99H583.29V762.55H543.01ZM563.15,812.99V838.5M563.15,762.55V713.75M553.08,838.5H573.22M553.08,713.75H573.22" style="vector-effect: non-scaling-stroke; stroke-width: 1.88976px; stroke: rgb(51, 51, 51); stroke-opacity: 1; fill: rgb(248, 118, 109); fill-opacity: 1;"/><path class="box" d="M707.43,847.14H747.71M707.43,848.59H747.71V845.49H707.43ZM727.57,848.59V848.59M727.57,845.49V845.43M717.5,848.59H737.64M717.5,845.43H737.64" style="vector-effect: non-scaling-stroke; stroke-width: 1.88976px; stroke: rgb(51, 51, 51); stroke-opacity: 1; fill: rgb(248, 118, 109); fill-opacity: 1;"/><g class="points"><path class="point" transform="translate(69.88,837.59)" d="M2.83,0A2.83,2.83 0 1,1 0,-2.83A2.83,2.83 0 0,1 2.83,0Z" style="opacity: 1; stroke-width: 1.88976px; fill: rgb(51, 51, 51); fill-opacity: 1; stroke: rgb(0, 0, 0); stroke-opacity: 1;"/></g><g class="points"><path class="point" transform="translate(234.3,709.41)" d="M2.83,0A2.83,2.83 0 1,1 0,-2.83A2.83,2.83 0 0,1 2.83,0Z" style="opacity: 1; stroke-width: 1px; fill: rgb(0, 0, 0); fill-opacity: 1; stroke: rgb(51, 51, 51); stroke-opacity: 1;"/></g><g class="points"/><g class="points"/><g class="points"><path class="point" transform="translate(727.57,838.73)" d="M2.83,0A2.83,2.83 0 1,1 0,-2.83A2.83,2.83 0 0,1 2.83,0Z" style="opacity: 1; stroke-width: 1px; fill: rgb(0, 0, 0); fill-opacity: 1; stroke: rgb(51, 51, 51); stroke-opacity: 1;"/></g></g><g class="trace boxes" style="opacity: 1;"><path class="box" d="M107.29,848.59H147.57M107.29,848.59H147.57V848.59H107.29ZM127.43,848.59V848.59M127.43,848.59V848.59M117.36,848.59H137.5M117.36,848.59H137.5" style="vector-effect: non-scaling-stroke; stroke-width: 1.88976px; stroke: rgb(51, 51, 51); stroke-opacity: 1; fill: rgb(0, 191, 196); fill-opacity: 1;"/><path class="box" d="M271.71,801.47H311.99M271.71,825.49H311.99V792.44H271.71ZM291.85,825.49V829.37M291.85,792.44V775.31M281.78,829.37H301.92M281.78,775.31H301.92" style="vector-effect: non-scaling-stroke; stroke-width: 1.88976px; stroke: rgb(51, 51, 51); stroke-opacity: 1; fill: rgb(0, 191, 196); fill-opacity: 1;"/><path class="box" d="M436.13,776.91H476.42M436.13,788.88H476.42V741.65H436.13ZM456.27,788.88V790.17M456.27,741.65V697.56M446.2,790.17H466.34M446.2,697.56H466.34" style="vector-effect: non-scaling-stroke; stroke-width: 1.88976px; stroke: rgb(51, 51, 51); stroke-opacity: 1; fill: rgb(0, 191, 196); fill-opacity: 1;"/><path class="box" d="M600.56,458.34H640.84M600.56,737.07H640.84V254.54H600.56ZM620.7,737.07V812.87M620.7,254.54V40.41M610.63,812.87H630.77M610.63,40.41H630.77" style="vector-effect: non-scaling-stroke; stroke-width: 1.88976px; stroke: rgb(51, 51, 51); stroke-opacity: 1; fill: rgb(0, 191, 196); fill-opacity: 1;"/><path class="box" d="M764.98,848.59H805.26M764.98,848.59H805.26V847.8H764.98ZM785.12,848.59V848.59M785.12,847.8V847.8M775.05,848.59H795.19M775.05,847.8H795.19" style="vector-effect: non-scaling-stroke; stroke-width: 1.88976px; stroke: rgb(51, 51, 51); stroke-opacity: 1; fill: rgb(0, 191, 196); fill-opacity: 1;"/><g class="points"/><g class="points"/><g class="points"/><g class="points"/><g class="points"><path class="point" transform="translate(785.12,845.43)" d="M2.83,0A2.83,2.83 0 1,1 0,-2.83A2.83,2.83 0 0,1 2.83,0Z" style="opacity: 1; stroke-width: 1.88976px; fill: rgb(51, 51, 51); fill-opacity: 1; stroke: rgb(0, 0, 0); stroke-opacity: 1;"/></g></g></g><g class="scatterlayer mlayer"><g class="trace scatter trace5c811a" style="stroke-miterlimit: 2; opacity: 1;"><g class="fills"/><g class="errorbars"/><g class="lines"/><g class="points"><path class="point" transform="translate(110.12,837.59)" d="M0.76,0A0.76,0.76 0 1,1 0,-0.76A0.76,0.76 0 0,1 0.76,0Z" style="opacity: 0.9; stroke-width: 1.88976px; fill: rgb(248, 118, 109); fill-opacity: 1; stroke: rgb(0, 0, 0); stroke-opacity: 1;"/><path class="point" transform="translate(107.39,848.59)" d="M0.76,0A0.76,0.76 0 1,1 0,-0.76A0.76,0.76 0 0,1 0.76,0Z" style="opacity: 0.9; stroke-width: 1.88976px; fill: rgb(248, 118, 109); fill-opacity: 1; stroke: rgb(0, 0, 0); stroke-opacity: 1;"/><path class="point" transform="translate(36.94,848.59)" d="M0.76,0A0.76,0.76 0 1,1 0,-0.76A0.76,0.76 0 0,1 0.76,0Z" style="opacity: 0.9; stroke-width: 1.88976px; fill: rgb(248, 118, 109); fill-opacity: 1; stroke: rgb(0, 0, 0); stroke-opacity: 1;"/><path class="point" transform="translate(137.12,848.59)" d="M0.76,0A0.76,0.76 0 1,1 0,-0.76A0.76,0.76 0 0,1 0.76,0Z" style="opacity: 0.9; stroke-width: 1.88976px; fill: rgb(248, 118, 109); fill-opacity: 1; stroke: rgb(0, 0, 0); stroke-opacity: 1;"/><path class="point" transform="translate(159.87,848.59)" d="M0.76,0A0.76,0.76 0 1,1 0,-0.76A0.76,0.76 0 0,1 0.76,0Z" style="opacity: 0.9; stroke-width: 1.88976px; fill: rgb(248, 118, 109); fill-opacity: 1; stroke: rgb(0, 0, 0); stroke-opacity: 1;"/><path class="point" transform="translate(44.69,848.59)" d="M0.76,0A0.76,0.76 0 1,1 0,-0.76A0.76,0.76 0 0,1 0.76,0Z" style="opacity: 0.9; stroke-width: 1.88976px; fill: rgb(248, 118, 109); fill-opacity: 1; stroke: rgb(0, 0, 0); stroke-opacity: 1;"/><path class="point" transform="translate(63.43,848.59)" d="M0.76,0A0.76,0.76 0 1,1 0,-0.76A0.76,0.76 0 0,1 0.76,0Z" style="opacity: 0.9; stroke-width: 1.88976px; fill: rgb(248, 118, 109); fill-opacity: 1; stroke: rgb(0, 0, 0); stroke-opacity: 1;"/><path class="point" transform="translate(93.21,848.59)" d="M0.76,0A0.76,0.76 0 1,1 0,-0.76A0.76,0.76 0 0,1 0.76,0Z" style="opacity: 0.9; stroke-width: 1.88976px; fill: rgb(248, 118, 109); fill-opacity: 1; stroke: rgb(0, 0, 0); stroke-opacity: 1;"/><path class="point" transform="translate(313.63,771.76)" d="M0.76,0A0.76,0.76 0 1,1 0,-0.76A0.76,0.76 0 0,1 0.76,0Z" style="opacity: 0.9; stroke-width: 1.88976px; fill: rgb(248, 118, 109); fill-opacity: 1; stroke: rgb(0, 0, 0); stroke-opacity: 1;"/><path class="point" transform="translate(233,815.21)" d="M0.76,0A0.76,0.76 0 1,1 0,-0.76A0.76,0.76 0 0,1 0.76,0Z" style="opacity: 0.9; stroke-width: 1.88976px; fill: rgb(248, 118, 109); fill-opacity: 1; stroke: rgb(0, 0, 0); stroke-opacity: 1;"/><path class="point" transform="translate(233.51,796.51)" d="M0.76,0A0.76,0.76 0 1,1 0,-0.76A0.76,0.76 0 0,1 0.76,0Z" style="opacity: 0.9; stroke-width: 1.88976px; fill: rgb(248, 118, 109); fill-opacity: 1; stroke: rgb(0, 0, 0); stroke-opacity: 1;"/><path class="point" transform="translate(214.38,811.11)" d="M0.76,0A0.76,0.76 0 1,1 0,-0.76A0.76,0.76 0 0,1 0.76,0Z" style="opacity: 0.9; stroke-width: 1.88976px; fill: rgb(248, 118, 109); fill-opacity: 1; stroke: rgb(0, 0, 0); stroke-opacity: 1;"/><path class="point" transform="translate(284.34,783.86)" d="M0.76,0A0.76,0.76 0 1,1 0,-0.76A0.76,0.76 0 0,1 0.76,0Z" style="opacity: 0.9; stroke-width: 1.88976px; fill: rgb(248, 118, 109); fill-opacity: 1; stroke: rgb(0, 0, 0); stroke-opacity: 1;"/><path class="point" transform="translate(226.77,709.41)" d="M0.76,0A0.76,0.76 0 1,1 0,-0.76A0.76,0.76 0 0,1 0.76,0Z" style="opacity: 0.9; stroke-width: 1.88976px; fill: rgb(248, 118, 109); fill-opacity: 1; stroke: rgb(0, 0, 0); stroke-opacity: 1;"/><path class="point" transform="translate(253.37,818.77)" d="M0.76,0A0.76,0.76 0 1,1 0,-0.76A0.76,0.76 0 0,1 0.76,0Z" style="opacity: 0.9; stroke-width: 1.88976px; fill: rgb(248, 118, 109); fill-opacity: 1; stroke: rgb(0, 0, 0); stroke-opacity: 1;"/><path class="point" transform="translate(372.99,778.13)" d="M0.76,0A0.76,0.76 0 1,1 0,-0.76A0.76,0.76 0 0,1 0.76,0Z" style="opacity: 0.9; stroke-width: 1.88976px; fill: rgb(248, 118, 109); fill-opacity: 1; stroke: rgb(0, 0, 0); stroke-opacity: 1;"/><path class="point" transform="translate(438.01,791.71)" d="M0.76,0A0.76,0.76 0 1,1 0,-0.76A0.76,0.76 0 0,1 0.76,0Z" style="opacity: 0.9; stroke-width: 1.88976px; fill: rgb(248, 118, 109); fill-opacity: 1; stroke: rgb(0, 0, 0); stroke-opacity: 1;"/><path class="point" transform="translate(431.56,786.26)" d="M0.76,0A0.76,0.76 0 1,1 0,-0.76A0.76,0.76 0 0,1 0.76,0Z" style="opacity: 0.9; stroke-width: 1.88976px; fill: rgb(248, 118, 109); fill-opacity: 1; stroke: rgb(0, 0, 0); stroke-opacity: 1;"/><path class="point" transform="translate(398.22,798.77)" d="M0.76,0A0.76,0.76 0 1,1 0,-0.76A0.76,0.76 0 0,1 0.76,0Z" style="opacity: 0.9; stroke-width: 1.88976px; fill: rgb(248, 118, 109); fill-opacity: 1; stroke: rgb(0, 0, 0); stroke-opacity: 1;"/><path class="point" transform="translate(489.73,737.36)" d="M0.76,0A0.76,0.76 0 1,1 0,-0.76A0.76,0.76 0 0,1 0.76,0Z" style="opacity: 0.9; stroke-width: 1.88976px; fill: rgb(248, 118, 109); fill-opacity: 1; stroke: rgb(0, 0, 0); stroke-opacity: 1;"/><path class="point" transform="translate(486.15,778.68)" d="M0.76,0A0.76,0.76 0 1,1 0,-0.76A0.76,0.76 0 0,1 0.76,0Z" style="opacity: 0.9; stroke-width: 1.88976px; fill: rgb(248, 118, 109); fill-opacity: 1; stroke: rgb(0, 0, 0); stroke-opacity: 1;"/><path class="point" transform="translate(387.59,754.36)" d="M0.76,0A0.76,0.76 0 1,1 0,-0.76A0.76,0.76 0 0,1 0.76,0Z" style="opacity: 0.9; stroke-width: 1.88976px; fill: rgb(248, 118, 109); fill-opacity: 1; stroke: rgb(0, 0, 0); stroke-opacity: 1;"/><path class="point" transform="translate(414.75,756.01)" d="M0.76,0A0.76,0.76 0 1,1 0,-0.76A0.76,0.76 0 0,1 0.76,0Z" style="opacity: 0.9; stroke-width: 1.88976px; fill: rgb(248, 118, 109); fill-opacity: 1; stroke: rgb(0, 0, 0); stroke-opacity: 1;"/><path class="point" transform="translate(572.82,800.43)" d="M0.76,0A0.76,0.76 0 1,1 0,-0.76A0.76,0.76 0 0,1 0.76,0Z" style="opacity: 0.9; stroke-width: 1.88976px; fill: rgb(248, 118, 109); fill-opacity: 1; stroke: rgb(0, 0, 0); stroke-opacity: 1;"/><path class="point" transform="translate(550.36,780.9)" d="M0.76,0A0.76,0.76 0 1,1 0,-0.76A0.76,0.76 0 0,1 0.76,0Z" style="opacity: 0.9; stroke-width: 1.88976px; fill: rgb(248, 118, 109); fill-opacity: 1; stroke: rgb(0, 0, 0); stroke-opacity: 1;"/><path class="point" transform="translate(579.64,713.75)" d="M0.76,0A0.76,0.76 0 1,1 0,-0.76A0.76,0.76 0 0,1 0.76,0Z" style="opacity: 0.9; stroke-width: 1.88976px; fill: rgb(248, 118, 109); fill-opacity: 1; stroke: rgb(0, 0, 0); stroke-opacity: 1;"/><path class="point" transform="translate(550.89,838.5)" d="M0.76,0A0.76,0.76 0 1,1 0,-0.76A0.76,0.76 0 0,1 0.76,0Z" style="opacity: 0.9; stroke-width: 1.88976px; fill: rgb(248, 118, 109); fill-opacity: 1; stroke: rgb(0, 0, 0); stroke-opacity: 1;"/><path class="point" transform="translate(548.57,768.31)" d="M0.76,0A0.76,0.76 0 1,1 0,-0.76A0.76,0.76 0 0,1 0.76,0Z" style="opacity: 0.9; stroke-width: 1.88976px; fill: rgb(248, 118, 109); fill-opacity: 1; stroke: rgb(0, 0, 0); stroke-opacity: 1;"/><path class="point" transform="translate(547.59,806.24)" d="M0.76,0A0.76,0.76 0 1,1 0,-0.76A0.76,0.76 0 0,1 0.76,0Z" style="opacity: 0.9; stroke-width: 1.88976px; fill: rgb(248, 118, 109); fill-opacity: 1; stroke: rgb(0, 0, 0); stroke-opacity: 1;"/><path class="point" transform="translate(649.48,756.78)" d="M0.76,0A0.76,0.76 0 1,1 0,-0.76A0.76,0.76 0 0,1 0.76,0Z" style="opacity: 0.9; stroke-width: 1.88976px; fill: rgb(248, 118, 109); fill-opacity: 1; stroke: rgb(0, 0, 0); stroke-opacity: 1;"/><path class="point" transform="translate(640.59,819.74)" d="M0.76,0A0.76,0.76 0 1,1 0,-0.76A0.76,0.76 0 0,1 0.76,0Z" style="opacity: 0.9; stroke-width: 1.88976px; fill: rgb(248, 118, 109); fill-opacity: 1; stroke: rgb(0, 0, 0); stroke-opacity: 1;"/><path class="point" transform="translate(749.13,838.73)" d="M0.76,0A0.76,0.76 0 1,1 0,-0.76A0.76,0.76 0 0,1 0.76,0Z" style="opacity: 0.9; stroke-width: 1.88976px; fill: rgb(248, 118, 109); fill-opacity: 1; stroke: rgb(0, 0, 0); stroke-opacity: 1;"/><path class="point" transform="translate(767.22,848.59)" d="M0.76,0A0.76,0.76 0 1,1 0,-0.76A0.76,0.76 0 0,1 0.76,0Z" style="opacity: 0.9; stroke-width: 1.88976px; fill: rgb(248, 118, 109); fill-opacity: 1; stroke: rgb(0, 0, 0); stroke-opacity: 1;"/><path class="point" transform="translate(804.11,845.69)" d="M0.76,0A0.76,0.76 0 1,1 0,-0.76A0.76,0.76 0 0,1 0.76,0Z" style="opacity: 0.9; stroke-width: 1.88976px; fill: rgb(248, 118, 109); fill-opacity: 1; stroke: rgb(0, 0, 0); stroke-opacity: 1;"/><path class="point" transform="translate(716.2,848.59)" d="M0.76,0A0.76,0.76 0 1,1 0,-0.76A0.76,0.76 0 0,1 0.76,0Z" style="opacity: 0.9; stroke-width: 1.88976px; fill: rgb(248, 118, 109); fill-opacity: 1; stroke: rgb(0, 0, 0); stroke-opacity: 1;"/><path class="point" transform="translate(713.34,848.59)" d="M0.76,0A0.76,0.76 0 1,1 0,-0.76A0.76,0.76 0 0,1 0.76,0Z" style="opacity: 0.9; stroke-width: 1.88976px; fill: rgb(248, 118, 109); fill-opacity: 1; stroke: rgb(0, 0, 0); stroke-opacity: 1;"/><path class="point" transform="translate(813.08,845.43)" d="M0.76,0A0.76,0.76 0 1,1 0,-0.76A0.76,0.76 0 0,1 0.76,0Z" style="opacity: 0.9; stroke-width: 1.88976px; fill: rgb(248, 118, 109); fill-opacity: 1; stroke: rgb(0, 0, 0); stroke-opacity: 1;"/><path class="point" transform="translate(759.09,848.59)" d="M0.76,0A0.76,0.76 0 1,1 0,-0.76A0.76,0.76 0 0,1 0.76,0Z" style="opacity: 0.9; stroke-width: 1.88976px; fill: rgb(248, 118, 109); fill-opacity: 1; stroke: rgb(0, 0, 0); stroke-opacity: 1;"/><path class="point" transform="translate(756.05,845.56)" d="M0.76,0A0.76,0.76 0 1,1 0,-0.76A0.76,0.76 0 0,1 0.76,0Z" style="opacity: 0.9; stroke-width: 1.88976px; fill: rgb(248, 118, 109); fill-opacity: 1; stroke: rgb(0, 0, 0); stroke-opacity: 1;"/></g><g class="text"/></g><g class="trace scatter trace86a897" style="stroke-miterlimit: 2; opacity: 1;"><g class="fills"/><g class="errorbars"/><g class="lines"/><g class="points"><path class="point" transform="translate(43.59,848.59)" d="M0.76,0A0.76,0.76 0 1,1 0,-0.76A0.76,0.76 0 0,1 0.76,0Z" style="opacity: 0.9; stroke-width: 1.88976px; fill: rgb(0, 191, 196); fill-opacity: 1; stroke: rgb(0, 0, 0); stroke-opacity: 1;"/><path class="point" transform="translate(109.26,848.59)" d="M0.76,0A0.76,0.76 0 1,1 0,-0.76A0.76,0.76 0 0,1 0.76,0Z" style="opacity: 0.9; stroke-width: 1.88976px; fill: rgb(0, 191, 196); fill-opacity: 1; stroke: rgb(0, 0, 0); stroke-opacity: 1;"/><path class="point" transform="translate(101.31,848.59)" d="M0.76,0A0.76,0.76 0 1,1 0,-0.76A0.76,0.76 0 0,1 0.76,0Z" style="opacity: 0.9; stroke-width: 1.88976px; fill: rgb(0, 191, 196); fill-opacity: 1; stroke: rgb(0, 0, 0); stroke-opacity: 1;"/><path class="point" transform="translate(313.54,798.15)" d="M0.76,0A0.76,0.76 0 1,1 0,-0.76A0.76,0.76 0 0,1 0.76,0Z" style="opacity: 0.9; stroke-width: 1.88976px; fill: rgb(0, 191, 196); fill-opacity: 1; stroke: rgb(0, 0, 0); stroke-opacity: 1;"/><path class="point" transform="translate(324.79,829.37)" d="M0.76,0A0.76,0.76 0 1,1 0,-0.76A0.76,0.76 0 0,1 0.76,0Z" style="opacity: 0.9; stroke-width: 1.88976px; fill: rgb(0, 191, 196); fill-opacity: 1; stroke: rgb(0, 0, 0); stroke-opacity: 1;"/><path class="point" transform="translate(273.64,801.47)" d="M0.76,0A0.76,0.76 0 1,1 0,-0.76A0.76,0.76 0 0,1 0.76,0Z" style="opacity: 0.9; stroke-width: 1.88976px; fill: rgb(0, 191, 196); fill-opacity: 1; stroke: rgb(0, 0, 0); stroke-opacity: 1;"/><path class="point" transform="translate(267.44,775.31)" d="M0.76,0A0.76,0.76 0 1,1 0,-0.76A0.76,0.76 0 0,1 0.76,0Z" style="opacity: 0.9; stroke-width: 1.88976px; fill: rgb(0, 191, 196); fill-opacity: 1; stroke: rgb(0, 0, 0); stroke-opacity: 1;"/><path class="point" transform="translate(255.85,824.2)" d="M0.76,0A0.76,0.76 0 1,1 0,-0.76A0.76,0.76 0 0,1 0.76,0Z" style="opacity: 0.9; stroke-width: 1.88976px; fill: rgb(0, 191, 196); fill-opacity: 1; stroke: rgb(0, 0, 0); stroke-opacity: 1;"/><path class="point" transform="translate(433.26,697.56)" d="M0.76,0A0.76,0.76 0 1,1 0,-0.76A0.76,0.76 0 0,1 0.76,0Z" style="opacity: 0.9; stroke-width: 1.88976px; fill: rgb(0, 191, 196); fill-opacity: 1; stroke: rgb(0, 0, 0); stroke-opacity: 1;"/><path class="point" transform="translate(395.86,756.35)" d="M0.76,0A0.76,0.76 0 1,1 0,-0.76A0.76,0.76 0 0,1 0.76,0Z" style="opacity: 0.9; stroke-width: 1.88976px; fill: rgb(0, 191, 196); fill-opacity: 1; stroke: rgb(0, 0, 0); stroke-opacity: 1;"/><path class="point" transform="translate(362.88,790.17)" d="M0.76,0A0.76,0.76 0 1,1 0,-0.76A0.76,0.76 0 0,1 0.76,0Z" style="opacity: 0.9; stroke-width: 1.88976px; fill: rgb(0, 191, 196); fill-opacity: 1; stroke: rgb(0, 0, 0); stroke-opacity: 1;"/><path class="point" transform="translate(373.4,776.91)" d="M0.76,0A0.76,0.76 0 1,1 0,-0.76A0.76,0.76 0 0,1 0.76,0Z" style="opacity: 0.9; stroke-width: 1.88976px; fill: rgb(0, 191, 196); fill-opacity: 1; stroke: rgb(0, 0, 0); stroke-opacity: 1;"/><path class="point" transform="translate(487.26,788.45)" d="M0.76,0A0.76,0.76 0 1,1 0,-0.76A0.76,0.76 0 0,1 0.76,0Z" style="opacity: 0.9; stroke-width: 1.88976px; fill: rgb(0, 191, 196); fill-opacity: 1; stroke: rgb(0, 0, 0); stroke-opacity: 1;"/><path class="point" transform="translate(591.91,40.41)" d="M0.76,0A0.76,0.76 0 1,1 0,-0.76A0.76,0.76 0 0,1 0.76,0Z" style="opacity: 0.9; stroke-width: 1.88976px; fill: rgb(0, 191, 196); fill-opacity: 1; stroke: rgb(0, 0, 0); stroke-opacity: 1;"/><path class="point" transform="translate(558.57,458.34)" d="M0.76,0A0.76,0.76 0 1,1 0,-0.76A0.76,0.76 0 0,1 0.76,0Z" style="opacity: 0.9; stroke-width: 1.88976px; fill: rgb(0, 191, 196); fill-opacity: 1; stroke: rgb(0, 0, 0); stroke-opacity: 1;"/><path class="point" transform="translate(559.93,325.92)" d="M0.76,0A0.76,0.76 0 1,1 0,-0.76A0.76,0.76 0 0,1 0.76,0Z" style="opacity: 0.9; stroke-width: 1.88976px; fill: rgb(0, 191, 196); fill-opacity: 1; stroke: rgb(0, 0, 0); stroke-opacity: 1;"/><path class="point" transform="translate(653.84,711.81)" d="M0.76,0A0.76,0.76 0 1,1 0,-0.76A0.76,0.76 0 0,1 0.76,0Z" style="opacity: 0.9; stroke-width: 1.88976px; fill: rgb(0, 191, 196); fill-opacity: 1; stroke: rgb(0, 0, 0); stroke-opacity: 1;"/><path class="point" transform="translate(619.63,812.87)" d="M0.76,0A0.76,0.76 0 1,1 0,-0.76A0.76,0.76 0 0,1 0.76,0Z" style="opacity: 0.9; stroke-width: 1.88976px; fill: rgb(0, 191, 196); fill-opacity: 1; stroke: rgb(0, 0, 0); stroke-opacity: 1;"/><path class="point" transform="translate(807.84,848.59)" d="M0.76,0A0.76,0.76 0 1,1 0,-0.76A0.76,0.76 0 0,1 0.76,0Z" style="opacity: 0.9; stroke-width: 1.88976px; fill: rgb(0, 191, 196); fill-opacity: 1; stroke: rgb(0, 0, 0); stroke-opacity: 1;"/><path class="point" transform="translate(783.66,848.59)" d="M0.76,0A0.76,0.76 0 1,1 0,-0.76A0.76,0.76 0 0,1 0.76,0Z" style="opacity: 0.9; stroke-width: 1.88976px; fill: rgb(0, 191, 196); fill-opacity: 1; stroke: rgb(0, 0, 0); stroke-opacity: 1;"/><path class="point" transform="translate(807.68,845.43)" d="M0.76,0A0.76,0.76 0 1,1 0,-0.76A0.76,0.76 0 0,1 0.76,0Z" style="opacity: 0.9; stroke-width: 1.88976px; fill: rgb(0, 191, 196); fill-opacity: 1; stroke: rgb(0, 0, 0); stroke-opacity: 1;"/><path class="point" transform="translate(771.78,848.59)" d="M0.76,0A0.76,0.76 0 1,1 0,-0.76A0.76,0.76 0 0,1 0.76,0Z" style="opacity: 0.9; stroke-width: 1.88976px; fill: rgb(0, 191, 196); fill-opacity: 1; stroke: rgb(0, 0, 0); stroke-opacity: 1;"/><path class="point" transform="translate(800.35,848.59)" d="M0.76,0A0.76,0.76 0 1,1 0,-0.76A0.76,0.76 0 0,1 0.76,0Z" style="opacity: 0.9; stroke-width: 1.88976px; fill: rgb(0, 191, 196); fill-opacity: 1; stroke: rgb(0, 0, 0); stroke-opacity: 1;"/></g><g class="text"/></g><g class="trace scatter trace334990" style="stroke-miterlimit: 2; opacity: 1;"><g class="fills"/><g class="errorbars"/><g class="lines"/><g class="points"/><g class="text"><g class="textpoint" transform="translate(0,-5.865826771653557)"><text x="98.65" y="40.41" text-anchor="middle" style="font-family: 'Open Sans', verdana, arial, sans-serif; font-size: 14.6646px; fill: rgb(0, 0, 0); fill-opacity: 1; white-space: pre;"><tspan class="line" dy="0em" x="98.65" y="40.41">T-test</tspan><tspan class="line" dy="1.3em" x="98.65" y="40.41">p = 0.35</tspan></text></g><g class="textpoint" transform="translate(0,-5.865826771653557)"><text x="263.08" y="40.41" text-anchor="middle" style="font-family: 'Open Sans', verdana, arial, sans-serif; font-size: 14.6646px; fill: rgb(0, 0, 0); fill-opacity: 1; white-space: pre;"><tspan class="line" dy="0em" x="263.08" y="40.41">T-test</tspan><tspan class="line" dy="1.3em" x="263.08" y="40.41">p = 0.3</tspan></text></g><g class="textpoint" transform="translate(0,-5.865826771653557)"><text x="427.5" y="40.41" text-anchor="middle" style="font-family: 'Open Sans', verdana, arial, sans-serif; font-size: 14.6646px; fill: rgb(0, 0, 0); fill-opacity: 1; white-space: pre;"><tspan class="line" dy="0em" x="427.5" y="40.41">T-test</tspan><tspan class="line" dy="1.3em" x="427.5" y="40.41">p = 0.59</tspan></text></g><g class="textpoint" transform="translate(0,-5.865826771653557)"><text x="591.92" y="40.41" text-anchor="middle" style="font-family: 'Open Sans', verdana, arial, sans-serif; font-size: 14.6646px; fill: rgb(0, 0, 0); fill-opacity: 1; white-space: pre;"><tspan class="line" dy="0em" x="591.92" y="40.41">T-test</tspan><tspan class="line" dy="1.3em" x="591.92" y="40.41">p = 0.084</tspan></text></g><g class="textpoint" transform="translate(0,-5.865826771653557)"><text x="756.35" y="40.41" text-anchor="middle" style="font-family: 'Open Sans', verdana, arial, sans-serif; font-size: 14.6646px; fill: rgb(0, 0, 0); fill-opacity: 1; white-space: pre;"><tspan class="line" dy="0em" x="756.35" y="40.41">T-test</tspan><tspan class="line" dy="1.3em" x="756.35" y="40.41">p = 0.23</tspan></text></g></g></g></g></g><g class="overplot"/><path class="xlines-above crisp" d="" style="fill: none; stroke-width: 1px; stroke: rgb(0, 0, 0); stroke-opacity: 0;"/><path class="ylines-above crisp" d="" style="fill: none; stroke-width: 1px; stroke: rgb(0, 0, 0); stroke-opacity: 0;"/><g class="overlines-above"/><g class="xaxislayer-above"><path class="xtick ticks crisp" d="M0,940v3.65296803652968" transform="translate(148.65,0)" style="stroke: rgb(0, 0, 0); stroke-opacity: 1; stroke-width: 0.664176px;"/><path class="xtick ticks crisp" d="M0,940v3.65296803652968" transform="translate(313.08,0)" style="stroke: rgb(0, 0, 0); stroke-opacity: 1; stroke-width: 0.664176px;"/><path class="xtick ticks crisp" d="M0,940v3.65296803652968" transform="translate(477.5,0)" style="stroke: rgb(0, 0, 0); stroke-opacity: 1; stroke-width: 0.664176px;"/><path class="xtick ticks crisp" d="M0,940v3.65296803652968" transform="translate(641.92,0)" style="stroke: rgb(0, 0, 0); stroke-opacity: 1; stroke-width: 0.664176px;"/><path class="xtick ticks crisp" d="M0,940v3.65296803652968" transform="translate(806.35,0)" style="stroke: rgb(0, 0, 0); stroke-opacity: 1; stroke-width: 0.664176px;"/><g class="xtick"><text text-anchor="end" x="0" y="957.6803652968036" transform="translate(148.65,0) rotate(-45,0,951.8356164383562)" style="font-family: 'Open Sans', verdana, arial, sans-serif; font-size: 11.6895px; fill: rgb(0, 0, 0); fill-opacity: 1; white-space: pre;">gut</text></g><g class="xtick"><text text-anchor="end" x="0" y="957.6803652968036" transform="translate(313.08,0) rotate(-45,0,951.8356164383562)" style="font-family: 'Open Sans', verdana, arial, sans-serif; font-size: 11.6895px; fill: rgb(0, 0, 0); fill-opacity: 1; white-space: pre;">hrt</text></g><g class="xtick"><text text-anchor="end" x="0" y="957.6803652968036" transform="translate(477.5,0) rotate(-45,0,951.8356164383562)" style="font-family: 'Open Sans', verdana, arial, sans-serif; font-size: 11.6895px; fill: rgb(0, 0, 0); fill-opacity: 1; white-space: pre;">kdn</text></g><g class="xtick"><text text-anchor="end" x="0" y="957.6803652968036" transform="translate(641.92,0) rotate(-45,0,951.8356164383562)" style="font-family: 'Open Sans', verdana, arial, sans-serif; font-size: 11.6895px; fill: rgb(0, 0, 0); fill-opacity: 1; white-space: pre;">lng</text></g><g class="xtick"><text text-anchor="end" x="0" y="957.6803652968036" transform="translate(806.35,0) rotate(-45,0,951.8356164383562)" style="font-family: 'Open Sans', verdana, arial, sans-serif; font-size: 11.6895px; fill: rgb(0, 0, 0); fill-opacity: 1; white-space: pre;">lvr</text></g></g><g class="yaxislayer-above"><path class="ytick ticks crisp" d="M49,0h-3.65296803652968" transform="translate(0,898.59)" style="stroke: rgb(0, 0, 0); stroke-opacity: 1; stroke-width: 0.664176px;"/><path class="ytick ticks crisp" d="M49,0h-3.65296803652968" transform="translate(0,721.32)" style="stroke: rgb(0, 0, 0); stroke-opacity: 1; stroke-width: 0.664176px;"/><path class="ytick ticks crisp" d="M49,0h-3.65296803652968" transform="translate(0,544.04)" style="stroke: rgb(0, 0, 0); stroke-opacity: 1; stroke-width: 0.664176px;"/><path class="ytick ticks crisp" d="M49,0h-3.65296803652968" transform="translate(0,366.77)" style="stroke: rgb(0, 0, 0); stroke-opacity: 1; stroke-width: 0.664176px;"/><path class="ytick ticks crisp" d="M49,0h-3.65296803652968" transform="translate(0,189.5)" style="stroke: rgb(0, 0, 0); stroke-opacity: 1; stroke-width: 0.664176px;"/><g class="ytick"><text text-anchor="middle" x="34.82648401826482" y="4.09132420091325" transform="translate(0,898.59) rotate(-90,34.82648401826482,-1.75342465753425)" style="font-family: 'Open Sans', verdana, arial, sans-serif; font-size: 11.6895px; fill: rgb(0, 0, 0); fill-opacity: 1; white-space: pre;">0.0</text></g><g class="ytick"><text text-anchor="middle" x="34.82648401826482" y="4.09132420091325" transform="translate(0,721.32) rotate(-90,34.82648401826482,-1.75342465753425)" style="font-family: 'Open Sans', verdana, arial, sans-serif; font-size: 11.6895px; fill: rgb(0, 0, 0); fill-opacity: 1; white-space: pre;">0.5</text></g><g class="ytick"><text text-anchor="middle" x="34.82648401826482" y="4.09132420091325" transform="translate(0,544.04) rotate(-90,34.82648401826482,-1.75342465753425)" style="font-family: 'Open Sans', verdana, arial, sans-serif; font-size: 11.6895px; fill: rgb(0, 0, 0); fill-opacity: 1; white-space: pre;">1.0</text></g><g class="ytick"><text text-anchor="middle" x="34.82648401826482" y="4.09132420091325" transform="translate(0,366.77) rotate(-90,34.82648401826482,-1.75342465753425)" style="font-family: 'Open Sans', verdana, arial, sans-serif; font-size: 11.6895px; fill: rgb(0, 0, 0); fill-opacity: 1; white-space: pre;">1.5</text></g><g class="ytick"><text text-anchor="middle" x="34.82648401826482" y="4.09132420091325" transform="translate(0,189.5) rotate(-90,34.82648401826482,-1.75342465753425)" style="font-family: 'Open Sans', verdana, arial, sans-serif; font-size: 11.6895px; fill: rgb(0, 0, 0); fill-opacity: 1; white-space: pre;">2.0</text></g></g><g class="overaxes-above"/></g></g><g class="polarlayer"/><g class="ternarylayer"/><g class="geolayer"/><g class="funnelarealayer"/><g class="pielayer"/><g class="treemaplayer"/><g class="sunburstlayer"/><g class="glimages"/><defs id="topdefs-5a9756"><g class="clips"/><clipPath id="legend5a9756"><rect width="62.22047244094488" height="77.22047244094487" x="1.88976377952756" y="1.88976377952756"/></clipPath></defs><g class="layer-above"><g class="imagelayer"/><g class="shapelayer"><path data-index="0" fill-rule="evenodd" d="M50,939H905V50H50Z" style="opacity: 1; stroke: rgb(0, 0, 0); stroke-opacity: 1; fill: rgb(0, 0, 0); fill-opacity: 0; stroke-width: 1.32835px;"/></g></g><g class="infolayer"><g class="legend" pointer-events="all" transform="translate(922.1,50)"><rect class="bg" shape-rendering="crispEdges" width="64.11023622047244" height="79.11023622047244" x="0.94488188976378" y="0.94488188976378" style="stroke: rgb(0, 0, 0); stroke-opacity: 0; fill: rgb(255, 255, 255); fill-opacity: 1; stroke-width: 1.88976px;"/><g class="scrollbox" transform="" clip-path="url('#legend5a9756')"><text class="legendtitletext" text-anchor="start" x="3.88976377952756" y="20.885197569481868" style="font-family: 'Open Sans', verdana, arial, sans-serif; font-size: 14.6119px; fill: rgb(0, 0, 0); fill-opacity: 1; white-space: pre;">Group</text><g class="groups" transform=""><g class="traces" transform="translate(1.88976377952756,35.38519756948187)" style="opacity: 1;"><text class="legendtext" text-anchor="start" x="40" y="4.55890410958905" style="font-family: 'Open Sans', verdana, arial, sans-serif; font-size: 11.6895px; fill: rgb(0, 0, 0); fill-opacity: 1; white-space: pre;">PM</text><g class="layers" style="opacity: 1;"><g class="legendfill"/><g class="legendlines"/><g class="legendsymbols"><g class="legendpoints"><path class="legendbox" d="M6,6H-6V-6H6Z" transform="translate(20,0)" style="stroke-width: 1.88976px; fill: rgb(248, 118, 109); fill-opacity: 1; stroke: rgb(51, 51, 51); stroke-opacity: 1;"/></g></g></g><rect class="legendtoggle" x="0" y="-9.5" width="56.8984375" height="19" style="fill: rgb(0, 0, 0); fill-opacity: 0;"/></g></g><g class="groups" transform="translate(0,10)"><g class="traces" transform="translate(1.88976377952756,54.38519756948187)" style="opacity: 1;"><text class="legendtext" text-anchor="start" x="40" y="4.55890410958905" style="font-family: 'Open Sans', verdana, arial, sans-serif; font-size: 11.6895px; fill: rgb(0, 0, 0); fill-opacity: 1; white-space: pre;">FA</text><g class="layers" style="opacity: 1;"><g class="legendfill"/><g class="legendlines"/><g class="legendsymbols"><g class="legendpoints"><path class="legendbox" d="M6,6H-6V-6H6Z" transform="translate(20,0)" style="stroke-width: 1.88976px; fill: rgb(0, 191, 196); fill-opacity: 1; stroke: rgb(51, 51, 51); stroke-opacity: 1;"/></g></g></g><rect class="legendtoggle" x="0" y="-9.5" width="56.8984375" height="19" style="fill: rgb(0, 0, 0); fill-opacity: 0;"/></g></g></g><rect class="scrollbar" rx="20" ry="3" width="0" height="0" x="0" y="0" style="fill: rgb(128, 139, 164); fill-opacity: 1;"/></g><g class="g-gtitle"><text class="gtitle" x="477.5" y="25" text-anchor="middle" dy="0em" style="font-family: 'Open Sans', verdana, arial, sans-serif; font-size: 17.53px; fill: rgb(0, 0, 0); opacity: 1; font-weight: normal; white-space: pre;"><tspan style="font-weight:bold"> Expression on BoxPlot </tspan></text></g><g class="g-xtitle"><text class="xtitle" x="477.5" y="992.835616438356" text-anchor="middle" style="font-family: 'Open Sans', verdana, arial, sans-serif; font-size: 14.61px; fill: rgb(0, 0, 0); opacity: 1; font-weight: normal; white-space: pre;"><tspan style="font-weight:bold"> Organ </tspan></text></g><g class="g-ytitle" transform="translate(3.7236328125,0)"><text class="ytitle" transform="rotate(-90,10.776255707762601,494.5)" x="10.776255707762601" y="494.5" text-anchor="middle" style="font-family: 'Open Sans', verdana, arial, sans-serif; font-size: 14.61px; fill: rgb(0, 0, 0); opacity: 1; font-weight: normal; white-space: pre;"><tspan style="font-weight:bold"> ENSMUSG00000022510 Expression [log2(FPKM + 1)] </tspan></text></g></g></svg>