<?xml version="1.0" standalone="no"?><!DOCTYPE svg PUBLIC "-//W3C//DTD SVG 1.1//EN" "http://www.w3.org/Graphics/SVG/1.1/DTD/svg11.dtd"><svg t="1679430514414" class="icon" viewBox="0 0 1024 1024" version="1.1" xmlns="http://www.w3.org/2000/svg" p-id="2927" xmlns:xlink="http://www.w3.org/1999/xlink" width="200" height="200"><path d="M553.824 119.632c30.48 0 55.232-24.752 55.232-55.232 0-30.448-24.752-55.232-55.232-55.232-30.48 0-55.2 24.784-55.2 55.232 0 30.48 24.704 55.232 55.2 55.232z" p-id="2928"></path><path d="M254.224 120c-30.992 0-56.016-24.88-56.016-55.616 0-30.704 25.024-55.584 56.016-55.584 30.944 0 56.064 24.896 56.064 55.584 0 30.736-25.104 55.616-56.064 55.616z" p-id="2929"></path><path d="M866.928 294.416c0 21.392-17.344 38.736-38.736 38.736s-38.736-17.344-38.736-38.736c0-21.392 17.344-38.736 38.736-38.736 21.392 0 38.736 17.344 38.736 38.736z" p-id="2930"></path><path d="M884.304 352.272c-13.632 0-91.296 0-104.528 0-0.48 0-34.944-3.136-34.944-3.136l-43.744-152.592c-17.632-61.392-69.12-59.52-69.12-59.52l-141.696 0c0 0-51.424-1.872-69.072 59.52l-21.568 75.136-21.568-75.136c-17.68-61.392-69.072-59.52-69.072-59.52l-109.632 0c0 0-51.472-1.872-69.072 59.52l-44.144 153.728c-4.192 14.384 3.68 25.328 16.272 28.976 12.544 3.6 25.392-2.736 28.64-14.208l42.96-149.84 20.96-0.032-62.72 259.472 55.44 0 0 184.288c0 15.184 12.224 27.536 27.44 27.536 15.184 0 27.6-12.352 27.6-27.536l0-184.288 23.232 0 0 184.288c0 15.184 12.272 27.536 27.44 27.536 15.216 0 27.6-12.352 27.6-27.536l0-184.288 54.512 0-62.112-259.472 20.88 0.032 42.464 148.288c0.688 2.528 1.824 4.8 3.312 6.864 4.192 6.24 11.424 9.776 19.552 9.52 8.08 0.256 15.296-3.216 19.44-9.408 1.728-2.24 2.928-4.8 3.6-7.648l42.272-147.6 19.296-0.032c0 0 0 411.952 0 438.416 0 17.888 14.64 32.4 32.528 32.4 17.904 0 32.4-14.512 32.4-32.4 0-26.496 0-249.44 0-249.44l23.952 0c0 0 0 222.96 0 249.44 0 17.888 14.496 32.4 32.352 32.4 17.92 0 32.608-14.512 32.608-32.4 0-26.496 0-438.416 0-438.416l20.944 0.032 41.168 149.84c2.16 7.392 8.368 12.272 15.76 14.112 0.288 0.08 0.464 0.288 0.752 0.32 6.544 1.488 36.72 10.032 58.976 16.368 0 40.464 0 255.024 0 271.904 0 12.56 10.272 22.768 22.8 22.768 12.56 0 22.768-10.208 22.768-22.768 0-18.608 0-135.84 0-135.84l17.808 0c0 0 0 117.232 0 135.84 0 12.56 10.176 22.768 22.72 22.768 12.56 0 22.864-10.208 22.864-22.768 0-18.608 0-253.984 0-253.984l17.504 0c0 0 0 75.2 0 86.112 0 9.376 7.648 17.024 16.944 17.024 9.376 0 16.736-7.648 16.736-17.024 0-9.344 0-83.984 0-97.936 0.016-27.408-24.08-49.664-51.504-49.664z" p-id="2931"></path><path d="M765.776 891.12c-10.672-8.272-21.392-16.8-32.24-25.472-9.024-7.184-18.08-14.432-27.2-21.536-54.576-42.64-111.312-81.52-174.48-87.184-5.232-0.464-10.496-0.752-15.808-0.752-5.344 0-10.576 0.688-15.808 1.152-63.344 5.744-120.304 44.4-175.008 87.184 1.92 1.52 3.824 3.04 5.744 4.544 6.672 5.296 13.2 10.384 19.808 15.584 54.4-42.176 107.456-76.912 165.28-76.912 57.6 0 110.528 34.56 164.736 76.544 10.96 8.448 21.968 17.2 33.04 26.08 8.752 6.96 17.568 14 26.4 20.912 59.344 46.384 121.232 88.528 191.072 88.528 27.056 0 52.88-6.464 77.84-16.912l0-34.48c-25.312 12.192-51.072 19.84-77.84 19.84-57.872 0-110.992-34.848-165.536-77.12z" p-id="2932"></path><path d="M740.272 844.736c1.808 1.44 3.648 2.88 5.456 4.336 6.752 5.408 13.424 10.528 20.096 15.824 19.728-15.264 39.312-29.504 58.976-41.52l0 84.832c10.528 6.896 21.056 13.28 31.6 18.656l0-120.448c19.472-9.088 39.248-15.328 59.488-17.504l0 157.136c4.864 0.576 9.744 1.12 14.64 1.12 5.664 0 11.328-0.544 16.944-1.296l0-157.168c21.024 2.272 41.488 8.944 61.68 18.608l0-34.416c-24.848-10.352-50.576-16.736-77.488-16.736-69.872 0-131.92 42.128-191.392 88.56z" p-id="2933"></path><path d="M291.344 911.648c-2.096-1.664-4.224-3.312-6.32-5.008-6.464-5.152-12.8-10.064-19.232-15.152-54.32 42.096-107.344 76.752-165.056 76.752-26.576 0-52.16-8.08-77.36-20.944l0 34.8c24.816 10.96 50.464 17.712 77.36 17.712 69.648 0 131.408-41.92 190.592-88.16z" p-id="2934"></path><path d="M84.624 946.128c5.232 0.688 10.496 1.184 15.76 1.184 5.296 0 10.56-0.496 15.84-1.184l0-157.424c20.384 2.208 40.256 8.448 59.888 17.68-0.112 0.72-0.432 1.408-0.432 2.208l0 117.856c10.496-5.44 21.024-11.792 31.6-18.72l0-84.288c30.192 18.544 60.16 42.384 90.896 66.912 67.44 53.808 137.2 109.472 217.504 109.472 69.584 0 131.376-41.808 190.64-87.968-2.176-1.728-4.368-3.456-6.544-5.2-6.416-5.088-12.688-9.952-19.008-14.976-19.376 14.976-38.56 28.864-57.856 40.72l0-83.472c-10.576-6.96-21.104-13.312-31.6-18.768l0 117.264c0 0.656 0.288 1.2 0.368 1.808-19.584 9.232-39.456 15.584-59.808 17.824l0-156.96c-5.52-0.752-11.008-1.264-16.528-1.264-5.04 0-10.064 0.544-15.072 1.152l0 157.36c-20.448-2.176-40.352-8.368-59.984-17.568 0.112-0.784 0.464-1.52 0.464-2.352l0-118.032c-10.528 5.376-21.056 11.76-31.6 18.688l0 84.688c-30.336-18.576-60.416-42.496-91.296-67.136-67.456-53.824-137.168-109.472-217.424-109.472-26.768 0-52.304 5.952-77.04 15.584l0 34.08c20.064-8.912 40.352-15.12 61.248-17.2l0 157.488 0 0z" p-id="2935"></path></svg>