<svg class="main-svg" xmlns="http://www.w3.org/2000/svg" xmlns:xlink="http://www.w3.org/1999/xlink" width="1000" height="1000" style="" viewBox="0 0 1000 1000"><rect x="0" y="0" width="1000" height="1000" style="fill: rgb(255, 255, 255); fill-opacity: 1;"/><defs id="defs-21472c"><g class="clips"><clipPath id="clip21472cxyplot" class="plotclip"><rect width="881" height="817"/></clipPath><clipPath class="axesclip" id="clip21472cx"><rect x="35" y="0" width="881" height="1000"/></clipPath><clipPath class="axesclip" id="clip21472cy"><rect x="0" y="50" width="1000" height="817"/></clipPath><clipPath class="axesclip" id="clip21472cxy"><rect x="35" y="50" width="881" height="817"/></clipPath></g><g class="gradients"/></defs><g class="bglayer"/><g class="layer-below"><g class="imagelayer"/><g class="shapelayer"/></g><g class="cartesianlayer"><g class="subplot xy"><g class="layer-subplot"><g class="shapelayer"/><g class="imagelayer"/></g><g class="gridlayer"><g class="x"/><g class="y"/></g><g class="zerolinelayer"/><path class="xlines-below"/><path class="ylines-below"/><g class="overlines-below"/><g class="xaxislayer-below"/><g class="yaxislayer-below"/><g class="overaxes-below"/><g class="plot" transform="translate(35,50)" clip-path="url('#clip21472cxyplot')"><g class="boxlayer mlayer"><g class="trace boxes" style="opacity: 1;"><path class="box" d="M83.28,646.94H150.73M83.28,655.82H150.73V622.36H83.28ZM117.01,655.82V658.79M117.01,622.36V614.17M100.14,658.79H133.87M100.14,614.17H133.87" style="vector-effect: non-scaling-stroke; stroke-width: 1.88976px; stroke: rgb(51, 51, 51); stroke-opacity: 1; fill: rgb(248, 118, 109); fill-opacity: 1;"/><path class="box" d="M358.59,419.58H426.05M358.59,482.59H426.05V396.57H358.59ZM392.32,482.59V503.6M392.32,396.57V388.89M375.46,503.6H409.18M375.46,388.89H409.18" style="vector-effect: non-scaling-stroke; stroke-width: 1.88976px; stroke: rgb(51, 51, 51); stroke-opacity: 1; fill: rgb(248, 118, 109); fill-opacity: 1;"/><path class="box" d="M633.91,163.17H701.36M633.91,168.4H701.36V130.01H633.91ZM667.63,168.4V170.14M667.63,130.01V118.96M650.77,170.14H684.5M650.77,118.96H684.5" style="vector-effect: non-scaling-stroke; stroke-width: 1.88976px; stroke: rgb(51, 51, 51); stroke-opacity: 1; fill: rgb(248, 118, 109); fill-opacity: 1;"/><g class="points"/><g class="points"/><g class="points"/></g><g class="trace boxes" style="opacity: 1;"><path class="box" d="M179.64,646.77H247.09M179.64,688.68H247.09V612.5H179.64ZM213.37,688.68V779.84M213.37,612.5V608.03M196.5,779.84H230.23M196.5,608.03H230.23" style="vector-effect: non-scaling-stroke; stroke-width: 1.88976px; stroke: rgb(51, 51, 51); stroke-opacity: 1; fill: rgb(0, 191, 196); fill-opacity: 1;"/><path class="box" d="M454.95,460.02H522.41M454.95,500.17H522.41V413.13H454.95ZM488.68,500.17V561.26M488.68,413.13V326.34M471.82,561.26H505.54M471.82,326.34H505.54" style="vector-effect: non-scaling-stroke; stroke-width: 1.88976px; stroke: rgb(51, 51, 51); stroke-opacity: 1; fill: rgb(0, 191, 196); fill-opacity: 1;"/><path class="box" d="M730.27,83.97H797.72M730.27,132.65H797.72V61.52H730.27ZM763.99,132.65V198.95M763.99,61.52V37.23M747.13,198.95H780.86M747.13,37.23H780.86" style="vector-effect: non-scaling-stroke; stroke-width: 1.88976px; stroke: rgb(51, 51, 51); stroke-opacity: 1; fill: rgb(0, 191, 196); fill-opacity: 1;"/><g class="points"/><g class="points"/><g class="points"/></g></g><g class="scatterlayer mlayer"><g class="trace scatter tracec9cdf2" style="stroke-miterlimit: 2; opacity: 1;"><g class="fills"/><g class="errorbars"/><g class="lines"/><g class="points"><path class="point" transform="translate(114.03,646.88)" d="M0.76,0A0.76,0.76 0 1,1 0,-0.76A0.76,0.76 0 0,1 0.76,0Z" style="opacity: 0.9; stroke-width: 1.88976px; fill: rgb(248, 118, 109); fill-opacity: 1; stroke: rgb(0, 0, 0); stroke-opacity: 1;"/><path class="point" transform="translate(270.08,658.95)" d="M0.76,0A0.76,0.76 0 1,1 0,-0.76A0.76,0.76 0 0,1 0.76,0Z" style="opacity: 0.9; stroke-width: 1.88976px; fill: rgb(248, 118, 109); fill-opacity: 1; stroke: rgb(0, 0, 0); stroke-opacity: 1;"/><path class="point" transform="translate(95.23,614.35)" d="M0.76,0A0.76,0.76 0 1,1 0,-0.76A0.76,0.76 0 0,1 0.76,0Z" style="opacity: 0.9; stroke-width: 1.88976px; fill: rgb(248, 118, 109); fill-opacity: 1; stroke: rgb(0, 0, 0); stroke-opacity: 1;"/><path class="point" transform="translate(519.88,503.47)" d="M0.76,0A0.76,0.76 0 1,1 0,-0.76A0.76,0.76 0 0,1 0.76,0Z" style="opacity: 0.9; stroke-width: 1.88976px; fill: rgb(248, 118, 109); fill-opacity: 1; stroke: rgb(0, 0, 0); stroke-opacity: 1;"/><path class="point" transform="translate(455.19,419.49)" d="M0.76,0A0.76,0.76 0 1,1 0,-0.76A0.76,0.76 0 0,1 0.76,0Z" style="opacity: 0.9; stroke-width: 1.88976px; fill: rgb(248, 118, 109); fill-opacity: 1; stroke: rgb(0, 0, 0); stroke-opacity: 1;"/><path class="point" transform="translate(457.59,388.95)" d="M0.76,0A0.76,0.76 0 1,1 0,-0.76A0.76,0.76 0 0,1 0.76,0Z" style="opacity: 0.9; stroke-width: 1.88976px; fill: rgb(248, 118, 109); fill-opacity: 1; stroke: rgb(0, 0, 0); stroke-opacity: 1;"/><path class="point" transform="translate(761.24,170.21)" d="M0.76,0A0.76,0.76 0 1,1 0,-0.76A0.76,0.76 0 0,1 0.76,0Z" style="opacity: 0.9; stroke-width: 1.88976px; fill: rgb(248, 118, 109); fill-opacity: 1; stroke: rgb(0, 0, 0); stroke-opacity: 1;"/><path class="point" transform="translate(749.23,119.1)" d="M0.76,0A0.76,0.76 0 1,1 0,-0.76A0.76,0.76 0 0,1 0.76,0Z" style="opacity: 0.9; stroke-width: 1.88976px; fill: rgb(248, 118, 109); fill-opacity: 1; stroke: rgb(0, 0, 0); stroke-opacity: 1;"/><path class="point" transform="translate(721.72,163.24)" d="M0.76,0A0.76,0.76 0 1,1 0,-0.76A0.76,0.76 0 0,1 0.76,0Z" style="opacity: 0.9; stroke-width: 1.88976px; fill: rgb(248, 118, 109); fill-opacity: 1; stroke: rgb(0, 0, 0); stroke-opacity: 1;"/></g><g class="text"/></g><g class="trace scatter trace631c6d" style="stroke-miterlimit: 2; opacity: 1;"><g class="fills"/><g class="errorbars"/><g class="lines"/><g class="points"><path class="point" transform="translate(172.16,613.57)" d="M0.76,0A0.76,0.76 0 1,1 0,-0.76A0.76,0.76 0 0,1 0.76,0Z" style="opacity: 0.9; stroke-width: 1.88976px; fill: rgb(0, 191, 196); fill-opacity: 1; stroke: rgb(0, 0, 0); stroke-opacity: 1;"/><path class="point" transform="translate(202.94,779.86)" d="M0.76,0A0.76,0.76 0 1,1 0,-0.76A0.76,0.76 0 0,1 0.76,0Z" style="opacity: 0.9; stroke-width: 1.88976px; fill: rgb(0, 191, 196); fill-opacity: 1; stroke: rgb(0, 0, 0); stroke-opacity: 1;"/><path class="point" transform="translate(202.56,641.47)" d="M0.76,0A0.76,0.76 0 1,1 0,-0.76A0.76,0.76 0 0,1 0.76,0Z" style="opacity: 0.9; stroke-width: 1.88976px; fill: rgb(0, 191, 196); fill-opacity: 1; stroke: rgb(0, 0, 0); stroke-opacity: 1;"/><path class="point" transform="translate(107.51,666.77)" d="M0.76,0A0.76,0.76 0 1,1 0,-0.76A0.76,0.76 0 0,1 0.76,0Z" style="opacity: 0.9; stroke-width: 1.88976px; fill: rgb(0, 191, 196); fill-opacity: 1; stroke: rgb(0, 0, 0); stroke-opacity: 1;"/><path class="point" transform="translate(230.27,611.38)" d="M0.76,0A0.76,0.76 0 1,1 0,-0.76A0.76,0.76 0 0,1 0.76,0Z" style="opacity: 0.9; stroke-width: 1.88976px; fill: rgb(0, 191, 196); fill-opacity: 1; stroke: rgb(0, 0, 0); stroke-opacity: 1;"/><path class="point" transform="translate(192.51,652.02)" d="M0.76,0A0.76,0.76 0 1,1 0,-0.76A0.76,0.76 0 0,1 0.76,0Z" style="opacity: 0.9; stroke-width: 1.88976px; fill: rgb(0, 191, 196); fill-opacity: 1; stroke: rgb(0, 0, 0); stroke-opacity: 1;"/><path class="point" transform="translate(198.86,710.84)" d="M0.76,0A0.76,0.76 0 1,1 0,-0.76A0.76,0.76 0 0,1 0.76,0Z" style="opacity: 0.9; stroke-width: 1.88976px; fill: rgb(0, 191, 196); fill-opacity: 1; stroke: rgb(0, 0, 0); stroke-opacity: 1;"/><path class="point" transform="translate(69.67,608.2)" d="M0.76,0A0.76,0.76 0 1,1 0,-0.76A0.76,0.76 0 0,1 0.76,0Z" style="opacity: 0.9; stroke-width: 1.88976px; fill: rgb(0, 191, 196); fill-opacity: 1; stroke: rgb(0, 0, 0); stroke-opacity: 1;"/><path class="point" transform="translate(374.41,504.71)" d="M0.76,0A0.76,0.76 0 1,1 0,-0.76A0.76,0.76 0 0,1 0.76,0Z" style="opacity: 0.9; stroke-width: 1.88976px; fill: rgb(0, 191, 196); fill-opacity: 1; stroke: rgb(0, 0, 0); stroke-opacity: 1;"/><path class="point" transform="translate(508.91,326.58)" d="M0.76,0A0.76,0.76 0 1,1 0,-0.76A0.76,0.76 0 0,1 0.76,0Z" style="opacity: 0.9; stroke-width: 1.88976px; fill: rgb(0, 191, 196); fill-opacity: 1; stroke: rgb(0, 0, 0); stroke-opacity: 1;"/><path class="point" transform="translate(362.53,396.36)" d="M0.76,0A0.76,0.76 0 1,1 0,-0.76A0.76,0.76 0 0,1 0.76,0Z" style="opacity: 0.9; stroke-width: 1.88976px; fill: rgb(0, 191, 196); fill-opacity: 1; stroke: rgb(0, 0, 0); stroke-opacity: 1;"/><path class="point" transform="translate(528.1,495.96)" d="M0.76,0A0.76,0.76 0 1,1 0,-0.76A0.76,0.76 0 0,1 0.76,0Z" style="opacity: 0.9; stroke-width: 1.88976px; fill: rgb(0, 191, 196); fill-opacity: 1; stroke: rgb(0, 0, 0); stroke-opacity: 1;"/><path class="point" transform="translate(343.32,477.5)" d="M0.76,0A0.76,0.76 0 1,1 0,-0.76A0.76,0.76 0 0,1 0.76,0Z" style="opacity: 0.9; stroke-width: 1.88976px; fill: rgb(0, 191, 196); fill-opacity: 1; stroke: rgb(0, 0, 0); stroke-opacity: 1;"/><path class="point" transform="translate(426.75,442.31)" d="M0.76,0A0.76,0.76 0 1,1 0,-0.76A0.76,0.76 0 0,1 0.76,0Z" style="opacity: 0.9; stroke-width: 1.88976px; fill: rgb(0, 191, 196); fill-opacity: 1; stroke: rgb(0, 0, 0); stroke-opacity: 1;"/><path class="point" transform="translate(402.03,430.04)" d="M0.76,0A0.76,0.76 0 1,1 0,-0.76A0.76,0.76 0 0,1 0.76,0Z" style="opacity: 0.9; stroke-width: 1.88976px; fill: rgb(0, 191, 196); fill-opacity: 1; stroke: rgb(0, 0, 0); stroke-opacity: 1;"/><path class="point" transform="translate(334.22,561.13)" d="M0.76,0A0.76,0.76 0 1,1 0,-0.76A0.76,0.76 0 0,1 0.76,0Z" style="opacity: 0.9; stroke-width: 1.88976px; fill: rgb(0, 191, 196); fill-opacity: 1; stroke: rgb(0, 0, 0); stroke-opacity: 1;"/><path class="point" transform="translate(690.4,85.49)" d="M0.76,0A0.76,0.76 0 1,1 0,-0.76A0.76,0.76 0 0,1 0.76,0Z" style="opacity: 0.9; stroke-width: 1.88976px; fill: rgb(0, 191, 196); fill-opacity: 1; stroke: rgb(0, 0, 0); stroke-opacity: 1;"/><path class="point" transform="translate(776.87,118.48)" d="M0.76,0A0.76,0.76 0 1,1 0,-0.76A0.76,0.76 0 0,1 0.76,0Z" style="opacity: 0.9; stroke-width: 1.88976px; fill: rgb(0, 191, 196); fill-opacity: 1; stroke: rgb(0, 0, 0); stroke-opacity: 1;"/><path class="point" transform="translate(657.18,37.14)" d="M0.76,0A0.76,0.76 0 1,1 0,-0.76A0.76,0.76 0 0,1 0.76,0Z" style="opacity: 0.9; stroke-width: 1.88976px; fill: rgb(0, 191, 196); fill-opacity: 1; stroke: rgb(0, 0, 0); stroke-opacity: 1;"/><path class="point" transform="translate(820.86,198.89)" d="M0.76,0A0.76,0.76 0 1,1 0,-0.76A0.76,0.76 0 0,1 0.76,0Z" style="opacity: 0.9; stroke-width: 1.88976px; fill: rgb(0, 191, 196); fill-opacity: 1; stroke: rgb(0, 0, 0); stroke-opacity: 1;"/><path class="point" transform="translate(766.2,146.95)" d="M0.76,0A0.76,0.76 0 1,1 0,-0.76A0.76,0.76 0 0,1 0.76,0Z" style="opacity: 0.9; stroke-width: 1.88976px; fill: rgb(0, 191, 196); fill-opacity: 1; stroke: rgb(0, 0, 0); stroke-opacity: 1;"/><path class="point" transform="translate(759.72,54)" d="M0.76,0A0.76,0.76 0 1,1 0,-0.76A0.76,0.76 0 0,1 0.76,0Z" style="opacity: 0.9; stroke-width: 1.88976px; fill: rgb(0, 191, 196); fill-opacity: 1; stroke: rgb(0, 0, 0); stroke-opacity: 1;"/><path class="point" transform="translate(687.34,82.04)" d="M0.76,0A0.76,0.76 0 1,1 0,-0.76A0.76,0.76 0 0,1 0.76,0Z" style="opacity: 0.9; stroke-width: 1.88976px; fill: rgb(0, 191, 196); fill-opacity: 1; stroke: rgb(0, 0, 0); stroke-opacity: 1;"/><path class="point" transform="translate(756.12,69)" d="M0.76,0A0.76,0.76 0 1,1 0,-0.76A0.76,0.76 0 0,1 0.76,0Z" style="opacity: 0.9; stroke-width: 1.88976px; fill: rgb(0, 191, 196); fill-opacity: 1; stroke: rgb(0, 0, 0); stroke-opacity: 1;"/></g><g class="text"/></g><g class="trace scatter traceae8dd5" style="stroke-miterlimit: 2; opacity: 1;"><g class="fills"/><g class="errorbars"/><g class="lines"/><g class="points"/><g class="text"><g class="textpoint" transform="translate(0,3.6661417322834753)"><text x="165.19" y="37.23" text-anchor="middle" style="font-family: 'Open Sans', verdana, arial, sans-serif; font-size: 14.6646px; fill: rgb(0, 0, 0); fill-opacity: 1; white-space: pre;">T-test, p = 0.43</text></g><g class="textpoint" transform="translate(0,3.6661417322834753)"><text x="440.5" y="37.23" text-anchor="middle" style="font-family: 'Open Sans', verdana, arial, sans-serif; font-size: 14.6646px; fill: rgb(0, 0, 0); fill-opacity: 1; white-space: pre;">T-test, p = 0.71</text></g><g class="textpoint" transform="translate(0,3.6661417322834753)"><text x="715.81" y="37.23" text-anchor="middle" style="font-family: 'Open Sans', verdana, arial, sans-serif; font-size: 14.6646px; fill: rgb(0, 0, 0); fill-opacity: 1; white-space: pre;">T-test, p = 0.073</text></g></g></g></g></g><g class="overplot"/><path class="xlines-above crisp" style="fill: none; stroke-width: 1px; stroke: rgb(0, 0, 0); stroke-opacity: 0;" d=""/><path class="ylines-above crisp" style="fill: none; stroke-width: 1px; stroke: rgb(0, 0, 0); stroke-opacity: 0;" d=""/><g class="overlines-above"/><g class="xaxislayer-above"><path class="xtick ticks crisp" d="M0,868v3.65296803652968" transform="translate(200.19,0)" style="stroke: rgb(0, 0, 0); stroke-opacity: 1; stroke-width: 0.664176px;"/><path class="xtick ticks crisp" d="M0,868v3.65296803652968" transform="translate(475.5,0)" style="stroke: rgb(0, 0, 0); stroke-opacity: 1; stroke-width: 0.664176px;"/><path class="xtick ticks crisp" d="M0,868v3.65296803652968" transform="translate(750.81,0)" style="stroke: rgb(0, 0, 0); stroke-opacity: 1; stroke-width: 0.664176px;"/><g class="xtick"><text text-anchor="end" x="0" y="885.6803652968036" transform="translate(200.19,0) rotate(-45,0,879.8356164383562)" style="font-family: 'Open Sans', verdana, arial, sans-serif; font-size: 11.6895px; fill: rgb(0, 0, 0); fill-opacity: 1; white-space: pre;">ENSMUSG00000020122</text></g><g class="xtick"><text text-anchor="end" x="0" y="885.6803652968036" transform="translate(475.5,0) rotate(-45,0,879.8356164383562)" style="font-family: 'Open Sans', verdana, arial, sans-serif; font-size: 11.6895px; fill: rgb(0, 0, 0); fill-opacity: 1; white-space: pre;">ENSMUSG00000059552</text></g><g class="xtick"><text text-anchor="end" x="0" y="885.6803652968036" transform="translate(750.81,0) rotate(-45,0,879.8356164383562)" style="font-family: 'Open Sans', verdana, arial, sans-serif; font-size: 11.6895px; fill: rgb(0, 0, 0); fill-opacity: 1; white-space: pre;">ENSMUSG00000062312</text></g></g><g class="yaxislayer-above"><path class="ytick ticks crisp" d="M34,0h-3.65296803652968" transform="translate(0,742.66)" style="stroke: rgb(0, 0, 0); stroke-opacity: 1; stroke-width: 0.664176px;"/><path class="ytick ticks crisp" d="M34,0h-3.65296803652968" transform="translate(0,562.6)" style="stroke: rgb(0, 0, 0); stroke-opacity: 1; stroke-width: 0.664176px;"/><path class="ytick ticks crisp" d="M34,0h-3.65296803652968" transform="translate(0,382.54)" style="stroke: rgb(0, 0, 0); stroke-opacity: 1; stroke-width: 0.664176px;"/><path class="ytick ticks crisp" d="M34,0h-3.65296803652968" transform="translate(0,202.49)" style="stroke: rgb(0, 0, 0); stroke-opacity: 1; stroke-width: 0.664176px;"/><g class="ytick"><text text-anchor="middle" x="19.82648401826482" y="4.09132420091325" transform="translate(0,742.66) rotate(-90,19.82648401826482,-1.75342465753425)" style="font-family: 'Open Sans', verdana, arial, sans-serif; font-size: 11.6895px; fill: rgb(0, 0, 0); fill-opacity: 1; white-space: pre;">2</text></g><g class="ytick"><text text-anchor="middle" x="19.82648401826482" y="4.09132420091325" transform="translate(0,562.6) rotate(-90,19.82648401826482,-1.75342465753425)" style="font-family: 'Open Sans', verdana, arial, sans-serif; font-size: 11.6895px; fill: rgb(0, 0, 0); fill-opacity: 1; white-space: pre;">3</text></g><g class="ytick"><text text-anchor="middle" x="19.82648401826482" y="4.09132420091325" transform="translate(0,382.54) rotate(-90,19.82648401826482,-1.75342465753425)" style="font-family: 'Open Sans', verdana, arial, sans-serif; font-size: 11.6895px; fill: rgb(0, 0, 0); fill-opacity: 1; white-space: pre;">4</text></g><g class="ytick"><text text-anchor="middle" x="19.82648401826482" y="4.09132420091325" transform="translate(0,202.49) rotate(-90,19.82648401826482,-1.75342465753425)" style="font-family: 'Open Sans', verdana, arial, sans-serif; font-size: 11.6895px; fill: rgb(0, 0, 0); fill-opacity: 1; white-space: pre;">5</text></g></g><g class="overaxes-above"/></g></g><g class="polarlayer"/><g class="ternarylayer"/><g class="geolayer"/><g class="funnelarealayer"/><g class="pielayer"/><g class="treemaplayer"/><g class="sunburstlayer"/><g class="glimages"/><defs id="topdefs-21472c"><g class="clips"/><clipPath id="legend21472c"><rect width="62.22047244094488" height="77.22047244094487" x="1.88976377952756" y="1.88976377952756"/></clipPath></defs><g class="layer-above"><g class="imagelayer"/><g class="shapelayer"><path data-index="0" fill-rule="evenodd" d="M35,867H916V50H35Z" style="opacity: 1; stroke: rgb(0, 0, 0); stroke-opacity: 1; fill: rgb(0, 0, 0); fill-opacity: 0; stroke-width: 1.32835px;"/></g></g><g class="infolayer"><g class="legend" pointer-events="all" transform="translate(933.62,50)"><rect class="bg" shape-rendering="crispEdges" style="stroke: rgb(0, 0, 0); stroke-opacity: 0; fill: rgb(255, 255, 255); fill-opacity: 1; stroke-width: 1.88976px;" width="64.11023622047244" height="79.11023622047244" x="0.94488188976378" y="0.94488188976378"/><g class="scrollbox" transform="" clip-path="url('#legend21472c')"><text class="legendtitletext" text-anchor="start" x="3.88976377952756" y="20.885197569481868" style="font-family: 'Open Sans', verdana, arial, sans-serif; font-size: 14.6119px; fill: rgb(0, 0, 0); fill-opacity: 1; white-space: pre;">Group</text><g class="groups" transform=""><g class="traces" transform="translate(1.88976377952756,35.38519756948187)" style="opacity: 1;"><text class="legendtext" text-anchor="start" x="40" y="4.55890410958905" style="font-family: 'Open Sans', verdana, arial, sans-serif; font-size: 11.6895px; fill: rgb(0, 0, 0); fill-opacity: 1; white-space: pre;">FA</text><g class="layers" style="opacity: 1;"><g class="legendfill"/><g class="legendlines"/><g class="legendsymbols"><g class="legendpoints"><path class="legendbox" d="M6,6H-6V-6H6Z" transform="translate(20,0)" style="stroke-width: 1.88976px; fill: rgb(248, 118, 109); fill-opacity: 1; stroke: rgb(51, 51, 51); stroke-opacity: 1;"/></g></g></g><rect class="legendtoggle" x="0" y="-9.5" width="56.8984375" height="19" style="fill: rgb(0, 0, 0); fill-opacity: 0;"/></g></g><g class="groups" transform="translate(0,10)"><g class="traces" transform="translate(1.88976377952756,54.38519756948187)" style="opacity: 1;"><text class="legendtext" text-anchor="start" x="40" y="4.55890410958905" style="font-family: 'Open Sans', verdana, arial, sans-serif; font-size: 11.6895px; fill: rgb(0, 0, 0); fill-opacity: 1; white-space: pre;">PM</text><g class="layers" style="opacity: 1;"><g class="legendfill"/><g class="legendlines"/><g class="legendsymbols"><g class="legendpoints"><path class="legendbox" d="M6,6H-6V-6H6Z" transform="translate(20,0)" style="stroke-width: 1.88976px; fill: rgb(0, 191, 196); fill-opacity: 1; stroke: rgb(51, 51, 51); stroke-opacity: 1;"/></g></g></g><rect class="legendtoggle" x="0" y="-9.5" width="56.8984375" height="19" style="fill: rgb(0, 0, 0); fill-opacity: 0;"/></g></g></g><rect class="scrollbar" rx="20" ry="3" width="0" height="0" style="fill: rgb(128, 139, 164); fill-opacity: 1;" x="0" y="0"/></g><g class="g-gtitle"><text class="gtitle" x="475.5" y="25" text-anchor="middle" dy="0em" style="font-family: 'Open Sans', verdana, arial, sans-serif; font-size: 17.53px; fill: rgb(0, 0, 0); opacity: 1; font-weight: normal; white-space: pre;"><tspan style="font-weight:bold"> Expression on BoxPlot </tspan></text></g><g class="g-xtitle" transform="translate(0,76.16438356164394)"><text class="xtitle" x="475.5" y="920.835616438356" text-anchor="middle" style="font-family: 'Open Sans', verdana, arial, sans-serif; font-size: 14.61px; fill: rgb(0, 0, 0); opacity: 1; font-weight: normal; white-space: pre;"><tspan style="font-weight:bold"> Gene Symbol </tspan></text></g><g class="g-ytitle" transform="translate(18.7236328125,0)"><text class="ytitle" transform="rotate(-90,-4.223744292237399,458.5)" x="-4.223744292237399" y="458.5" text-anchor="middle" style="font-family: 'Open Sans', verdana, arial, sans-serif; font-size: 14.61px; fill: rgb(0, 0, 0); opacity: 1; font-weight: normal; white-space: pre;"><tspan style="font-weight:bold"> Expression [log2(FPKM + 1)] </tspan></text></g></g></svg>